<svg width="239" height="239" viewBox="0 0 239 239" fill="none" xmlns="http://www.w3.org/2000/svg">
<path d="M119.5 0L121.374 101.673L144.345 2.61136L125.039 102.452L168.105 10.3313L128.462 103.976L189.74 22.8225L131.494 106.179L208.306 39.5389L134.002 108.964L222.99 59.75L135.875 112.209L233.151 82.5725L137.033 115.773L238.345 107.009L137.425 119.5L238.345 131.991L137.033 123.227L233.151 156.428L135.875 126.791L222.99 179.25L134.002 130.036L208.306 199.461L131.494 132.821L189.74 216.178L128.462 135.023L168.105 228.669L125.039 136.548L144.345 236.389L121.374 137.327L119.5 239L117.626 137.327L94.6546 236.389L113.961 136.548L70.895 228.669L110.537 135.023L49.2597 216.178L107.506 132.821L30.6942 199.461L104.998 130.036L16.01 179.25L103.125 126.791L5.84875 156.428L101.967 123.227L0.654633 131.991L101.575 119.5L0.654633 107.009L101.967 115.773L5.84875 82.5725L103.125 112.209L16.01 59.75L104.998 108.964L30.6942 39.5389L107.506 106.179L49.2597 22.8225L110.537 103.976L70.895 10.3313L113.961 102.452L94.6546 2.61136L117.626 101.673L119.5 0Z" fill="white"/>
<path d="M119.5 0L125.822 110.799L233.151 82.5725L129.729 122.823L189.74 216.178L119.5 130.255L49.2597 216.178L109.271 122.823L5.84875 82.5725L113.178 110.799L119.5 0Z" fill="#FFF500"/>
<path d="M119.5 46.8826L135.305 69.8728L135.522 70.1888L135.884 70.0608L162.183 60.7513L161.457 88.6406L161.447 89.024L161.814 89.133L188.563 97.06L171.582 119.196L171.349 119.5L171.582 119.804L188.563 141.94L161.814 149.867L161.447 149.976L161.457 150.359L162.183 178.249L135.884 168.939L135.522 168.811L135.305 169.127L119.5 192.117L103.695 169.127L103.478 168.811L103.116 168.939L76.8166 178.249L77.5434 150.359L77.5534 149.976L77.1857 149.867L50.4367 141.94L67.4177 119.804L67.6512 119.5L67.4177 119.196L50.4367 97.06L77.1857 89.133L77.5534 89.024L77.5434 88.6406L76.8166 60.7513L103.116 70.0608L103.478 70.1888L103.695 69.8728L119.5 46.8826Z" stroke="#24FF00"/>
<path d="M129.304 90.6457L153.493 72.7126L143.913 101.26L143.689 101.926L144.391 101.919L174.502 101.629L149.972 119.093L149.399 119.5L149.972 119.907L174.502 137.371L144.391 137.081L143.689 137.074L143.913 137.74L153.493 166.287L129.304 148.354L128.739 147.936L128.529 148.606L119.5 177.332L110.471 148.606L110.261 147.936L109.696 148.354L85.5069 166.287L95.0874 137.74L95.3109 137.074L94.6086 137.081L64.4981 137.371L89.0285 119.907L89.6006 119.5L89.0285 119.093L64.4981 101.629L94.6086 101.919L95.3109 101.926L95.0874 101.26L85.5069 72.7126L109.696 90.6457L110.261 91.064L110.471 90.394L119.5 61.6675L128.529 90.394L128.739 91.064L129.304 90.6457Z" stroke="#FF0000"/>
</svg>
