<?xml version="1.0" encoding="UTF-8" standalone="no"?>
<!-- Created with Inkscape (http://www.inkscape.org/) -->

<svg
   xmlns:dc="http://purl.org/dc/elements/1.1/"
   xmlns:cc="http://creativecommons.org/ns#"
   xmlns:rdf="http://www.w3.org/1999/02/22-rdf-syntax-ns#"
   xmlns:svg="http://www.w3.org/2000/svg"
   xmlns="http://www.w3.org/2000/svg"
   xmlns:xlink="http://www.w3.org/1999/xlink"
   xmlns:sodipodi="http://sodipodi.sourceforge.net/DTD/sodipodi-0.dtd"
   xmlns:inkscape="http://www.inkscape.org/namespaces/inkscape"
   width="622mm"
   height="622mm"
   viewBox="0 0 2203.937 2203.937"
   id="svg5386"
   version="1.1"
   inkscape:version="0.91 r13725"
   sodipodi:docname="retropighead.svg">
  <defs
     id="defs5388">
    <linearGradient
       inkscape:collect="always"
       id="linearGradient14370">
      <stop
         style="stop-color:#ebc8d2;stop-opacity:1;"
         offset="0"
         id="stop14372" />
      <stop
         style="stop-color:#ebc8d2;stop-opacity:0;"
         offset="1"
         id="stop14374" />
    </linearGradient>
    <linearGradient
       inkscape:collect="always"
       xlink:href="#linearGradient14370"
       id="linearGradient14376"
       x1="1202.3749"
       y1="581.47705"
       x2="-190.89594"
       y2="453.21466"
       gradientUnits="userSpaceOnUse" />
  </defs>
  <sodipodi:namedview
     id="base"
     pagecolor="#ffffff"
     bordercolor="#666666"
     borderopacity="1.0"
     inkscape:pageopacity="0.0"
     inkscape:pageshadow="2"
     inkscape:zoom="0.20313883"
     inkscape:cx="591.07663"
     inkscape:cy="1695.8372"
     inkscape:document-units="px"
     inkscape:current-layer="g32743"
     showgrid="false"
     fit-margin-top="0"
     fit-margin-left="0"
     fit-margin-right="0"
     fit-margin-bottom="0"
     inkscape:window-width="1916"
     inkscape:window-height="1035"
     inkscape:window-x="4"
     inkscape:window-y="1"
     inkscape:window-maximized="1" />
  <metadata
     id="metadata5391">
    <rdf:RDF>
      <cc:Work
         rdf:about="">
        <dc:format>image/svg+xml</dc:format>
        <dc:type
           rdf:resource="http://purl.org/dc/dcmitype/StillImage" />
        <dc:title></dc:title>
        <dc:creator>
          <cc:Agent>
            <dc:title>j4p4n</dc:title>
          </cc:Agent>
        </dc:creator>
        <cc:license
           rdf:resource="http://creativecommons.org/publicdomain/zero/1.0/" />
      </cc:Work>
      <cc:License
         rdf:about="http://creativecommons.org/publicdomain/zero/1.0/">
        <cc:permits
           rdf:resource="http://creativecommons.org/ns#Reproduction" />
        <cc:permits
           rdf:resource="http://creativecommons.org/ns#Distribution" />
        <cc:permits
           rdf:resource="http://creativecommons.org/ns#DerivativeWorks" />
      </cc:License>
    </rdf:RDF>
  </metadata>
  <g
     inkscape:label="Layer 1"
     inkscape:groupmode="layer"
     id="layer1"
     transform="translate(-462.42912,1241.7751)">
    <g
       transform="matrix(0.62631561,-1.4853035,1.5428436,0.65057884,360.29759,334.47848)"
       inkscape:label="Layer 1"
       id="layer1-9">
      <g
         id="g32743">
        <g
           id="g10292"
           transform="matrix(1.3621762,3.1099153,-2.156113,0.87527165,804.87195,-6019.4684)" />
        <g
           id="g14387"
           transform="translate(7.1624635,0.98132901)">
          <path
             sodipodi:nodetypes="ccccccccccccccccccccccccccscccccccccccccccccc"
             inkscape:connector-curvature="0"
             id="path14368"
             d="m 1173.1931,957.01989 -26.1258,-22.59476 44.6578,-78.67083 -98.5689,-16.62226 -21.7681,-12.64592 -102.05607,72.6771 -39.15812,21.75511 -27.55793,11.18712 6.37021,42.33231 43.45298,38.99644 3.92164,41.3734 -51.56766,44.3695 -92.65518,20.0365 -94.54383,48.1448 -187.2398,-6.015 -60.13713,-40.0354 -32.74547,-23.8135 -21.02144,26.1104 -109.11187,102.883 L 214.7777,1081.1643 73.389239,1030.4667 -204.176,498.66371 139.47207,9.5784141 377.32415,47.777602 460.95177,99.759764 565.04076,96.56437 c 0,0 94.31482,30.06697 100.66466,35.30114 6.34991,5.23417 52.52139,41.17409 52.52139,41.17409 l 78.64878,-98.328409 90.04022,6.413613 55.61315,57.495726 44.61543,9.23001 30.40031,46.24813 -24.07247,83.98508 15.87467,13.08541 112.8028,178.79944 45.1126,89.09994 6.6604,75.41507 62.1293,35.32071 94.1485,57.47611 22.4112,28.00861 -7.2221,57.61498 -94.9799,79.56939 -48.3927,46.98655 z"
             style="fill:url(#linearGradient14376);fill-opacity:1;fill-rule:evenodd;stroke:none;stroke-width:0.60868675px;stroke-linecap:butt;stroke-linejoin:miter;stroke-opacity:1" />
          <path
             inkscape:connector-curvature="0"
             id="path14378"
             d="m 956.61024,1013.694 -70.57488,-59.23392 -69.37177,-14.80395 -73.7091,12.34536 -19.67237,6.03302 24.67319,19.27849 c 0,0 56.79592,64.8275 52.16844,58.8941 -4.62751,-5.9334 10.81107,38.5766 10.81107,38.5766 l 8.81893,43.2913 71.53022,-17.3198 65.2635,-36.2585 5.78987,-23.8331 z"
             style="fill:#e4d6da;fill-opacity:1;fill-rule:evenodd;stroke:none;stroke-width:0.60868675px;stroke-linecap:butt;stroke-linejoin:miter;stroke-opacity:1" />
          <path
             inkscape:connector-curvature="0"
             id="path14380"
             d="m 650.29933,972.03805 -94.81198,-109.93698 -33.53456,25.33115 -14.8378,58.75362 53.45468,89.61946 40.79732,-8.7498 40.88047,-22.4543 z"
             style="fill:#c87991;fill-opacity:1;fill-rule:evenodd;stroke:none;stroke-width:0.60868675px;stroke-linecap:butt;stroke-linejoin:miter;stroke-opacity:1" />
          <path
             id="path14382"
             transform="matrix(0.24103916,0.55030426,-0.57162284,0.23204965,1332.9809,-781.54153)"
             d="m 2262.8594,1594.3887 -27.1192,21.0918 3.0137,141.6172 69.3027,0 3.0118,-81.3536 -18.0782,-60.2636 -9.039,-18.0782 -21.0918,-3.0136 z m -503.1934,54.2363 c -12.0525,0 -57.248,6.0273 -57.248,6.0273 l -9.0391,153.67 39.1699,45.1953 75.3282,6.0273 0,-102.4472 -12.0528,-66.2891 -36.1582,-42.1836 z"
             style="fill:#f2f2f2;fill-rule:evenodd;stroke:none;stroke-width:0.60868675px;stroke-linecap:butt;stroke-linejoin:miter;stroke-opacity:1"
             inkscape:connector-curvature="0" />
          <path
             inkscape:connector-curvature="0"
             id="path14366"
             d="m -12.355259,625.25719 c 0.39514,-2.2993 0.932,-4.8506 1.1931,-5.66956 0.26096,-0.81892 0.80394,-3.95602 1.2064796,-6.97132 0.81314,-6.09062 3.59422,-14.45188 11.83988,-35.59626 3.0521,-7.82646 5.27716,-14.85112 4.9446,-15.61038 -0.33256,-0.75924 -0.0428,-1.60856 0.644,-1.88734 0.68686,-0.27884 5.9662804,-11.7023 11.7322204,-25.38556 5.76592,-13.68324 12.12014,-27.75382 14.1205,-31.26796 2.00038,-3.51414 3.92592,-7.26546 4.27898,-8.33626 0.6726,-2.04004 6.2864,-10.72058 7.16332,-11.07656 0.7162,-0.29074 3.57828,-5.64032 4.32356,-8.08128 0.34294,-1.1232 1.54782,-3.94568 2.67752,-6.27216 1.1297,-2.3265 3.1164,-6.78278 4.41486,-9.90286 1.29848,-3.12008 3.80574,-7.21602 5.57168,-9.1021 4.44312,-4.74542 6.41112,-7.4694 8.06578,-11.16416 0.7805,-1.74276 2.86346,-5.79672 4.62884,-9.00876 1.76538,-3.21204 4.9691,-9.47096 7.1194,-13.90872 6.04928,-12.48442 7.36732,-15.03992 11.06698,-21.45712 4.13352,-7.16976 9.049819,-16.29198 12.665839,-23.50158 1.4593,-2.90954 3.234,-5.52584 3.94378,-5.81396 0.70976,-0.28814 1.07356,-1.01916 0.80842,-1.6245 -0.26514,-0.60532 0.35612,-1.44088 1.3806,-1.85676 1.02446,-0.41588 3.06064,-3.72164 4.52482,-7.34616 3.3425,-8.27414 6.30152,-13.35036 10.85634,-18.6241 1.96556,-2.27578 5.19246,-7.3353 7.1709,-11.24338 1.97844,-3.90808 4.4056,-7.43378 5.39366,-7.83488 0.98808,-0.40112 3.60708,-3.24154 5.82,-6.31204 2.21296,-3.07052 5.44848,-6.51412 7.19008,-7.65246 1.74158,-1.13832 4.6401,-3.7089 6.44112,-5.7124 3.24056,-3.60488 3.31456,-3.62744 7.12244,-2.17322 3.1925,1.2192 4.01118,2.1943 4.80672,5.72504 0.60096,2.66722 0.1664,5.43098 -1.1643,7.40486 -1.16772,1.73212 -3.43252,5.8404 -5.0329,9.1295 -5.20228,10.69184 -14.71878,26.84196 -20.93648,35.53054 -1.3782,1.9259 -3.23978,4.53716 -4.13682,5.8028 -0.89704,1.26564 -2.10644,3.82296 -2.68756,5.68296 -0.58112,1.85996 -2.56042,5.1006 -4.39846,7.20142 -1.83802,2.1008 -4.87432,7.25462 -6.74732,11.45296 -6.23192,13.96894 -10.8538,22.92808 -22.4659,43.54838 -1.11602,1.9818 -4.202639,7.75252 -6.302719,11.78352 -1.01138,1.94128 -2.30518,5.5596 -2.8751,8.04066 -0.56992,2.48108 -2.68018,6.6362 -4.68944,9.23362 -2.00926,2.5974 -4.3243,7.3213 -5.1445,10.49756 -0.82022,3.17622 -2.74062,7.64722 -4.26756,9.9355 -1.52694,2.2883 -5.49548,10.23296 -8.81896,17.65482 -3.32348,7.42186 -6.47118,14.335 -6.99488,15.36252 -0.52372,1.02754 -1.41182,3.48296 -1.97358,5.45646 -0.56176,1.97352 -2.01792,4.74526 -3.2359,6.15942 -2.18228,2.53378 -5.1924,8.48354 -10.13322,20.02916 -1.3847,3.23576 -3.07244,6.10842 -3.75052,6.38368 -0.67808,0.27526 -0.97106,1.12338 -0.65108,1.8847 1.12584,2.67856 -6.44808,23.79644 -9.94134,27.71884 -1.01408,1.13868 -1.93644,3.47446 -2.04974,5.19064 -0.1132,1.71616 -1.44034,6.32678 -2.9492,10.24584 -2.83978,7.37604 -3.8301,12.30896 -2.89818,14.4366 0.29658,0.67708 -0.0398,4.05916 -0.7476,7.51574 -0.70776,3.45656 -1.1235,6.65754 -0.92388,7.11328 0.47324,1.08042 -2.17232,12.39058 -4.15336,17.75622 -1.69998,4.60452 -4.71138,6.2648 -12.0340204,6.63472 -3.3086,0.1672 -5.18124,-0.56212 -6.85412,-2.66908 -1.26583996,-1.59452 -4.39128,-3.78244 -6.94536,-4.86208 -5.6156796,-2.37386 -8.1941196,-6.8738 -7.2124196,-12.587 z M 293.54842,1227.7038 c -0.84288,-6.4544 0.77286,-11.4099 5.48482,-16.8216 4.36998,-5.019 18.43412,-14.5107 20.94336,-14.1344 0.76952,0.1154 1.50344,-0.4349 1.63094,-1.2229 0.1276,-0.788 0.79278,-1.3486 1.47842,-1.2457 0.68562,0.1028 2.92212,-1.4077 4.96998,-3.3567 2.04786,-1.949 4.23608,-3.6154 4.86274,-3.7032 1.61926,-0.2267 13.45424,-8.3199 14.40066,-9.8477 0.43384,-0.7003 3.75084,-3.5028 7.37112,-6.2278 3.62028,-2.7249 8.39602,-7.0389 10.61276,-9.5866 2.21674,-2.5476 5.97966,-6.4071 8.36206,-8.5766 2.3824,-2.1695 4.90712,-4.7057 5.61046,-5.6362 0.70336,-0.9304 1.92594,-2.2893 2.71682,-3.0199 0.7909,-0.7305 3.13584,-3.1371 5.21096,-5.3479 2.07512,-2.2108 4.1568,-4.1754 4.62594,-4.3659 0.46914,-0.1904 1.83914,-2.2049 3.04446,-4.4766 1.20532,-2.2718 2.85132,-4.3983 3.65774,-4.7257 0.80646,-0.3273 2.96796,-3.2408 4.80336,-6.4744 1.8354,-3.2335 3.658,-6.0151 4.05024,-6.1812 0.39238,-0.1658 2.34082,-1.9426 4.33024,-3.9477 3.90038,-3.9311 7.63138,-5.4297 9.8554,-3.9586 2.33066,1.5418 3.54386,5.4705 2.36442,7.6567 -0.6131,1.1364 -0.75188,2.8947 -0.30838,3.9072 0.4435,1.0126 -1.1319,6.3932 -3.50088,11.957 -2.36898,5.5638 -4.09256,10.6208 -3.83018,11.2377 0.64746,1.5225 -10.83728,19.2767 -16.46756,25.4571 -2.50064,2.745 -6.09212,7.2451 -7.98108,10.0004 -1.88896,2.7552 -3.77808,5.149 -4.19804,5.3195 -0.41996,0.1704 -4.52622,4.3803 -9.12502,9.3551 -13.347,14.4383 -14.96128,15.9784 -18.0712,17.2409 -1.61894,0.6572 -4.18354,2.8482 -5.69914,4.869 -1.51556,2.0207 -4.9409,4.9552 -7.61184,6.521 -2.67092,1.5658 -5.65044,3.9798 -6.62114,5.3645 -1.0514,1.4997 -4.93034,3.8294 -9.59468,5.7625 -4.30634,1.7848 -8.17372,3.8432 -8.59408,4.5743 -0.42036,0.7311 -3.4737,2.7217 -6.78518,4.4236 -12.06058,6.1985 -20.3084,2.1533 -21.99852,-10.7893 z M 29.706101,457.24635 c 0.41902,-2.13094 -0.64712,-6.06234 -3.29362,-12.14536 -2.15228,-4.94696 -3.71068,-9.66004 -3.46314,-10.4735 1.37672,-4.52446 2.27686,-11.83168 1.49518,-12.1378 -0.49862,-0.1952 -0.20054,-1.00818 0.66244,-1.80648 0.86296,-0.7983 1.09018,-1.77928 0.50494,-2.17994 -0.58526,-0.4007 -0.26204,-1.05412 0.71824,-1.45206 0.98028,-0.39794 1.5976,-1.14534 1.37178,-1.66088 -0.76022,-1.73564 6.76118,-21.52578 9.65756,-25.41072 2.6892,-3.60706 5.99862,-9.92748 15.68862,-29.96252 4.51286,-9.33086 8.54732,-16.6161 15.82966,-28.58456 2.75154,-4.52212 5.8052,-10.00094 6.78588,-12.17514 1.98852,-4.40854 14.71708,-24.5204 17.80784,-28.13744 1.09296,-1.27906 2.0979,-3.10286 2.23316,-4.0529 0.1352,-0.95004 2.37872,-4.38416 4.985419,-7.63138 2.60672,-3.24724 6.35702,-9.16496 8.334,-13.15052 1.97702,-3.98554 5.38106,-9.10038 7.56456,-11.3663 2.1835,-2.2659 5.52692,-7.45208 7.4298,-11.52484 1.90292,-4.07274 4.07736,-7.65568 4.83214,-7.96208 0.75478,-0.3064 1.76972,-1.47784 2.25544,-2.6032 0.48572,-1.12536 2.9393,-4.26868 5.4524,-6.98514 2.5131,-2.7165 4.67118,-5.41194 4.79576,-5.98988 0.1246,-0.57796 2.31416,-3.40674 4.86576,-6.28622 2.55156,-2.87944 6.487,-8.28986 8.74538,-12.02312 2.25838,-3.73328 5.4904,-7.72964 7.18228,-8.8808 1.69186,-1.15116 5.3483,-5.02108 8.12542,-8.59982 2.77714,-3.57874 9.7188,-10.98408 15.42594,-16.45632 5.70714,-5.47224 13.60164,-13.39042 17.54336,-17.59598 3.94168,-4.20556 8.01758,-8.47066 9.05754,-9.47802 15.1117,-14.63816 17.17148,-15.86652 35.2322,-21.01128 10.9832,-3.12864 22.07302,-3.32528 23.37158,-0.41442 0.33714,0.75434 1.18948,1.13752 1.89524,0.851 0.8866,-0.3599 1.06684,0.168 0.58314,1.70774 -0.38504,1.22578 -2.35796,2.90168 -4.38428,3.72426 -2.19644,0.89164 -4.1178,2.68888 -4.75794,4.45062 -0.59058,1.62528 -2.37742,3.84204 -3.97074,4.92616 -1.59334,1.08412 -3.38016,3.30088 -3.97074,4.92616 -0.59056,1.62528 -2.24982,3.43246 -3.68722,4.01596 -1.4374,0.58352 -2.71446,1.68528 -2.83794,2.44838 -0.1234,0.76308 -1.5141,1.91094 -3.09028,2.5508 -3.34488,1.35786 -6.64358,4.9189 -7.0167,7.57472 -0.1438,1.02376 -1.64926,2.4286 -3.34544,3.12186 -1.69598,0.69366 -4.1963,2.87102 -5.55586,4.83946 -1.35958,1.96846 -3.19364,3.87584 -4.07572,4.23862 -0.8819,0.36318 -2.74768,2.5823 -4.14576,4.93228 -1.3981,2.34998 -3.28502,4.5743 -4.19316,4.94296 -0.90814,0.36866 -1.9662,1.6732 -2.35126,2.89896 -0.38504,1.22576 -1.59664,2.59262 -2.69242,3.03746 -1.09578,0.44482 -2.81916,2.22024 -3.82974,3.94538 -1.01058,1.72512 -3.90652,5.02894 -6.43546,7.34182 -2.52892,2.31286 -4.68406,4.73696 -4.78922,5.38686 -0.1052,0.6499 -1.11002,1.55464 -2.23302,2.01052 -1.12302,0.45588 -2.54016,2.20032 -3.14926,3.87652 -0.60906,1.6762 -2.83844,4.34656 -4.95414,5.93414 -2.1157,1.58758 -4.8225,4.72564 -6.01516,6.97346 -1.19262,2.24782 -2.9577,4.40736 -3.9224,4.79896 -0.9647,0.39162 -2.15984,1.61352 -2.65584,2.71534 -1.58072,3.5112 -4.97698,7.7194 -8.84112,10.95474 -4.23332,3.54446 -10.48258,12.01144 -9.88026,13.38656 0.21804,0.4978 -0.39102,1.22478 -1.3535,1.61548 -0.96246,0.39072 -4.5137,4.1657 -7.89164,8.38884 -3.37792,4.22314 -6.85484,7.96796 -7.72648,8.3218 -0.87162,0.35382 -2.4858,3.10134 -3.58704,6.10558 -1.10124,3.00424 -3.28876,6.72434 -4.86114,8.2669 -1.57238,1.54258 -4.0904,5.49116 -5.59558,8.77462 -1.50518,3.28344 -3.87438,7.28486 -5.26488,8.89202 -3.16114,3.65372 -7.9892,11.91474 -12.063,20.64034 -1.7193,3.68256 -3.58772,6.88302 -4.15202,7.1121 -0.90644,0.36796 -2.66106,3.29372 -9.760439,16.2752 -1.00312,1.83422 -2.83918,5.64298 -4.08014,8.4639 -1.24094,2.82092 -2.94884,5.41008 -3.79532,5.7537 -0.84646,0.34362 -2.43086,3.5292 -3.52088,7.07902 -1.09002,3.54984 -3.27652,7.7166 -4.8589,9.25944 -1.58238,1.54284 -2.75086,3.12068 -2.59666,3.5063 0.1542,0.38562 -4.53952,12.57454 -10.43056,27.08646 -5.89104,14.51194 -11.17472,29.05176 -11.74152,32.31068 -0.56678,3.25894 -1.53134,6.16534 -2.14344,6.45866 -0.61212,0.29334 -1.7476,3.2345 -2.5233,6.53594 -1.73256,7.37398 -10.13202,17.5143 -13.45608,16.24498 -3.0155,-1.1515 -6.20932,-7.81852 -5.4923,-11.46504 z M 202.65572,778.93071 c -0.0416,-0.78206 1.16508,-4.7592 2.68138,-8.8381 1.5163,-4.0789 2.60408,-7.76506 2.41732,-8.19146 -0.1868,-0.4264 0.55164,-1.50736 1.6409,-2.40212 1.08926,-0.89476 1.71028,-2.2437 1.38004,-2.99766 -0.33024,-0.75396 0.30454,-3.38768 1.4106,-5.8527 1.10608,-2.46502 1.71278,-6.03482 1.3482,-7.93286 -0.36456,-1.89804 -0.33914,-4.32812 0.0564,-5.40018 1.27634,-3.4584 1.46966,-7.7307 0.79246,-17.5136 -0.5084,-7.34458 -1.31486,-10.58046 -3.45294,-13.85506 -1.53432,-2.34982 -4.16248,-6.86426 -5.84038,-10.03208 -1.6779,-3.16782 -4.01446,-7.07238 -5.19234,-8.6768 -2.32352,-3.1649 -5.61174,-15.7073 -6.22986,-23.76272 -0.2122,-2.76572 -1.58682,-8.33276 -3.05466,-12.37118 -1.73414,-4.77106 -2.57124,-9.9636 -2.39022,-14.8264 0.1532,-4.1161 -0.0738,-8.28818 -0.50434,-9.27126 -0.4306,-0.98312 0.0232,-4.78868 1.00868,-8.4568 0.98538,-3.66814 1.28278,-7.83098 0.6609,-9.25078 -1.90594,-4.35136 -1.73176,-15.54708 0.321,-20.63118 1.07016,-2.65046 1.67544,-7.31796 1.3451,-10.37222 -0.33034,-3.0543 0.1404,-9.5457 1.0463,-14.4254 0.97618,-5.25882 1.08752,-10.97942 0.2734,-14.0463 -0.75542,-2.84576 -0.9903,-5.3297 -0.52192,-5.51982 1.07764,-0.43748 4.0639,-15.4016 3.38352,-16.95492 -0.75304,-1.71924 0.45296,-7.98848 2.69958,-14.03328 1.09222,-2.93878 1.84558,-6.5988 1.6741,-8.13338 -0.1714,-1.53458 0.168,-2.9849 0.75446,-3.22296 0.5864,-0.23806 0.75436,-1.14476 0.37324,-2.01488 -0.38114,-0.87014 1.13786,-5.13264 3.37552,-9.47222 4.77504,-9.26042 4.58466,-8.77264 7.2418,-18.5552 1.1391,-4.19376 3.19758,-8.44084 4.57436,-9.43792 1.37678,-0.9971 2.79768,-2.7502 3.15756,-3.8958 0.35986,-1.14558 1.4911,-2.42396 2.51386,-2.84082 1.02276,-0.41686 3.0104,-2.97238 4.41696,-5.67894 1.40656,-2.70654 2.94272,-5.0788 3.41368,-5.27166 0.47098,-0.1928 1.45136,-1.7589 2.17864,-3.48008 0.72728,-1.72116 2.16574,-3.47178 3.19658,-3.89026 1.03082,-0.41846 3.73174,-3.2649 6.00202,-6.32544 2.2703,-3.06052 4.92502,-5.88822 5.89938,-6.28376 0.97436,-0.39554 3.77836,-2.61926 6.23108,-4.9416 2.45274,-2.32236 7.20642,-6.25146 10.56374,-8.73134 3.35732,-2.47986 8.05722,-6.2753 10.44422,-8.43428 2.46914,-2.23328 8.47506,-5.74896 13.93254,-8.1557 5.2759,-2.32668 10.82898,-5.41834 12.34014,-6.87038 1.63344,-1.56952 5.7876,-3.60586 10.24452,-5.02178 4.1233,-1.30992 8.49524,-3.29948 9.71538,-4.42124 1.3241,-1.21732 3.19012,-1.93516 4.62862,-1.7806 1.3256,0.1424 8.47914,-2.12854 15.89678,-5.04662 9.32652,-3.66904 14.4663,-5.14686 16.6627,-4.79094 4.62132,0.74888 16.9203,-1.2205 24.29564,-3.89032 4.57954,-1.65778 9.31604,-2.17758 16.70198,-1.83296 5.6703,0.26456 13.77918,0.1558 18.01972,-0.2419 4.24056,-0.39764 9.8563,0.01 12.47944,0.90688 2.62314,0.89642 5.64684,1.2736 6.71938,0.83822 1.07252,-0.4354 2.92376,-0.41028 4.11388,0.0558 1.19012,0.46608 3.71326,0.61716 5.60698,0.33576 3.57096,-0.53064 15.55368,2.92508 24.31606,7.01256 5.00266,2.33364 7.67712,5.4772 5.43438,6.38764 -0.64226,0.26072 -1.20742,1.80266 -1.25592,3.42654 -0.1472,4.92946 -7.42118,11.0274 -11.32874,9.49712 -0.86834,-0.34006 -2.67882,-0.39246 -4.02326,-0.1164 -2.96214,0.6081 -5.691,0.69834 -14.57192,0.48188 -3.7429,-0.0912 -9.67936,-0.23236 -13.19214,-0.31366 -3.51276,-0.0812 -6.9804,0.0932 -7.70586,0.38768 -0.72544,0.29448 -3.23504,0.52024 -5.57688,0.50164 -9.21974,-0.0732 -11.82478,0.081 -13.60984,0.80564 -1.02128,0.4146 -3.20892,0.29846 -4.86144,-0.25806 -3.332,-1.12212 -13.53038,-0.23922 -17.61822,1.52524 -1.44812,0.62506 -4.01382,0.99268 -5.70154,0.81692 -1.68772,-0.1758 -3.50376,0.0702 -4.03564,0.54678 -2.35822,2.11258 -16.43442,6.4524 -20.49472,6.3187 -2.46156,-0.081 -5.35664,0.5764 -6.43348,1.46096 -1.18954,0.97712 -2.98792,1.20516 -4.58278,0.58036 -3.02456,-1.18448 -14.97492,3.58474 -14.89492,5.9443 0.03,0.88636 -4.83234,3.44248 -13.29982,6.99156 -14.42298,6.04528 -23.4426,10.91834 -23.75236,12.83278 -0.1072,0.66188 -1.65268,1.79526 -3.43466,2.51866 -1.78198,0.7234 -3.21252,2.12412 -3.17898,3.11272 0.0336,0.98862 -1.40246,2.79322 -3.1911,4.01022 -1.78862,1.217 -4.32854,3.46618 -5.64426,4.99816 -1.31572,1.53196 -3.05546,3.05824 -3.8661,3.39172 -0.81082,0.33304 -2.16276,2.08836 -3.0047,3.89972 -0.84196,1.8114 -3.16952,5.0858 -5.17234,7.27644 -5.7999,6.34376 -8.05234,9.97836 -10.03974,16.20038 -3.75592,11.75864 -11.61376,28.81558 -13.65698,29.64502 -0.6216,0.25234 -0.71322,1.41074 -0.20358,2.57424 0.50962,1.1635 -0.41492,4.69742 -2.05452,7.85314 -1.6396,3.15572 -3.20458,8.06568 -3.4777,10.911 -0.27312,2.84534 -1.9743,10.26328 -3.78038,16.4843 -3.02688,10.42598 -4.94338,23.46126 -5.63524,38.32864 -0.1522,3.27014 -0.4277,7.55536 -0.61228,9.5227 -0.1846,1.96736 0.0688,4.5 0.56282,5.62808 0.49412,1.12808 0.40096,4.44042 -0.20698,7.36072 -0.60796,2.92032 -0.57312,5.67406 0.0774,6.11942 0.6505,0.44536 1.06312,2.61466 0.91704,4.82064 -0.28086,4.23948 2.59056,15.99008 6.9059,28.2608 1.42616,4.05534 3.1313,10.85702 3.78916,15.11484 0.65788,4.25782 3.17862,12.56794 5.60166,18.46694 4.732,11.52028 7.21028,26.75082 5.27372,32.41024 -0.56666,1.65598 -0.56432,4.99246 0.006,7.41442 0.56948,2.42196 0.349,5.45588 -0.48996,6.74204 -0.83896,1.28616 -1.82698,4.85462 -2.1956,7.92994 -0.93316,7.7854 -4.56694,25.24808 -5.43888,26.13742 -1.0075,1.02758 -3.64368,11.5024 -4.12116,16.3753 -0.23438,2.39194 -1.44524,4.66182 -2.95762,5.54436 -1.40842,0.82186 -2.676,1.92288 -2.81686,2.44672 -0.1408,0.52382 -1.91042,2.39224 -3.93238,4.15202 -3.23762,2.81782 -4.2837,3.1643 -8.7665,2.90368 -4.93818,-0.28708 -10.54534,-4.0782 -10.71344,-7.24358 z m 89.93152,191.15066 c -1.23146,-4.1344 -2.9101,-8.9619 -3.7303,-10.72782 -0.8202,-1.7659 -2.06836,-6.03318 -2.77372,-9.4828 -1.32272,-6.46902 -1.48278,-6.92536 -5.32242,-15.17398 -1.34656,-2.89286 -2.60162,-9.4736 -3.05824,-16.03578 -0.4259,-6.12122 -1.15268,-11.99316 -1.61504,-13.04876 -1.55154,-3.5422 -1.8721,-14.24594 -0.54084,-18.0585 0.72516,-2.0768 1.49736,-6.30368 1.71598,-9.39308 0.33234,-4.69654 -0.0536,-6.0979 -2.35472,-8.55116 -2.0293,-2.16342 -3.29768,-5.18056 -4.82886,-11.4865 -1.84148,-7.58392 -2.47694,-8.87336 -5.61194,-11.38718 -2.5634,-2.0555 -3.95712,-4.3116 -5.06958,-8.20648 -0.84384,-2.95442 -2.69262,-8.45654 -4.10842,-12.22694 -4.29032,-11.42564 -1.94276,-23.07062 5.23858,-25.98588 3.08294,-1.25152 14.95482,3.87858 20.37848,8.806 2.53568,2.30366 6.08922,6.98616 7.89678,10.40554 3.51534,6.65002 4.22408,7.64772 10.4388,14.69432 2.8912,3.27822 5.03356,7.33354 7.61256,14.40982 1.97398,5.41626 3.9603,10.57202 4.41402,11.45728 3.31322,6.46416 4.09814,9.17058 3.52874,12.1663 -0.3582,1.88452 -0.2371,4.37198 0.26912,5.5277 0.50622,1.15574 0.62236,4.77496 0.25812,8.04276 -0.36428,3.26778 -0.1358,8.06106 0.50762,10.65174 0.64348,2.59066 1.11852,6.75238 1.05568,9.24826 -0.0628,2.49588 1.15996,8.12454 2.71734,12.50812 1.55738,4.3836 2.56762,9.1934 2.24498,10.68846 -0.38532,1.78562 0.36792,4.26786 2.19532,7.23446 2.14262,3.47836 2.53446,5.19714 1.70508,7.47958 -0.64804,1.78344 -0.41928,3.78778 0.57456,5.03382 0.90822,1.1387 1.89252,4.69586 2.18728,7.90476 0.29476,3.2089 0.96896,7.4086 1.49822,9.33266 0.52924,1.92406 1.5672,6.1694 2.30656,9.43412 1.716,7.57706 3.01532,11.12848 9.4976,25.95959 9.4886,21.7093 13.67386,28.0239 24.03444,36.2621 5.04554,4.012 10.48768,7.9278 12.09362,8.7019 1.60592,0.774 5.38792,3.0304 8.40446,5.0142 7.58506,4.9883 28.97158,12.7207 44.57258,16.1154 2.16112,0.4703 4.22432,1.5286 4.5849,2.3518 0.36058,0.8232 1.30538,1.251 2.09956,0.9507 2.42008,-0.9153 13.36116,5.9592 16.25632,10.2142 3.15228,4.6328 2.19642,8.4571 -2.43912,9.7588 -3.83102,1.0758 -3.3002,3.4836 0.79274,3.5959 1.86286,0.051 5.34974,1.6844 7.74862,3.6296 4.66982,3.7866 13.28342,8.8843 22.71764,13.4447 3.20674,1.5502 8.22706,4.2327 11.1563,5.9613 5.6341,3.3248 21.67186,9.8217 29.0653,11.7743 2.4232,0.64 7.987,2.0769 12.364,3.1931 4.377,1.1162 8.14204,2.4492 8.36676,2.9623 0.22472,0.513 1.59396,0.8278 3.04274,0.6995 1.44878,-0.1284 4.5442,0.5148 6.8787,1.429 4.96998,1.9464 20.2513,5.037 21.80616,4.4103 0.58874,-0.2377 2.53766,0.062 4.3306,0.6644 11.0264,3.7072 34.22114,6.5956 42.5889,5.3035 0.5821,-0.09 3.21194,0.5704 5.84412,1.4672 2.63222,0.897 7.01462,1.6876 9.7387,1.7571 2.72408,0.07 10.4962,0.3317 17.27136,0.5825 6.77514,0.2507 16.41146,0.1168 21.41402,-0.2977 5.00256,-0.4146 10.65778,-0.6455 12.5672,-0.5132 7.18414,0.4977 26.22652,-0.6436 32.14608,-1.9265 16.14546,-3.4995 28.7388,-7.8346 47.38884,-16.3135 10.80806,-4.9137 24.35214,-10.8814 30.0979,-13.2617 5.74572,-2.3804 10.62902,-4.7583 10.85164,-5.2845 0.72846,-1.722 -4.7336,-6.2726 -10.05654,-8.3784 -8.79514,-3.4795 -11.00646,-4.7603 -13.15986,-7.6218 -1.14066,-1.5158 -4.24284,-4.3546 -6.8938,-6.3086 -2.65094,-1.9539 -4.4157,-3.7257 -3.92164,-3.9371 0.49326,-0.2132 0.21394,-0.5353 -0.62246,-0.7196 -0.83638,-0.1844 -2.69752,-1.3156 -4.13586,-2.5142 -1.43834,-1.1985 -5.20714,-4.0436 -8.37514,-6.3224 -3.16798,-2.2788 -6.0839,-4.7909 -6.47976,-5.5823 -0.39594,-0.7914 -4.06158,-4.2267 -8.14604,-7.6339 -4.08448,-3.4072 -7.87692,-7.2237 -8.42768,-8.4811 -0.55074,-1.2574 -4.51372,-3.9323 -8.80662,-5.9442 -11.6805,-5.4741 -22.42354,-15.9703 -29.28434,-28.6114 -3.61426,-6.6593 -8.14234,-12.9838 -13.19936,-18.4361 -5.99056,-6.45871 -7.72434,-9.01487 -7.81756,-11.52577 -0.0834,-2.24436 -0.98244,-4.00796 -2.9538,-5.79388 -3.7743,-3.41926 -7.41156,-1.9188 -7.50362,3.09534 -0.0952,5.18576 -4.99702,10.27534 -11.42426,11.86181 -4.08576,1.0086 -6.06342,2.3894 -10.5672,7.3782 -3.0474,3.3756 -7.82896,7.7922 -10.62568,9.8147 -2.79674,2.0225 -6.05034,4.796 -7.23022,6.1634 -1.17988,1.3674 -3.00774,2.5133 -4.06194,2.5465 -1.05418,0.033 -2.82382,1.0085 -3.93254,2.1675 -4.65,4.8609 -9.70918,7.7966 -20.8292,12.0866 -11.57852,4.467 -21.01738,6.2181 -31.17346,5.7834 -4.7397,-0.2028 -17.18722,-4.6554 -17.96244,-6.4253 -0.25408,-0.5801 -2.4398,-2.1453 -4.85714,-3.4782 -11.76504,-6.4871 -18.58978,-14.2849 -16.26836,-18.588 0.6086,-1.1281 0.4978,-2.467 -0.24618,-2.9754 -0.744,-0.5084 -4.1898,-7.801 -7.65732,-16.20565 -5.85258,-14.18558 -6.61286,-15.49226 -10.60408,-18.22476 -3.47284,-2.37762 -4.93528,-4.4601 -7.60628,-10.83122 -4.9834,-11.88682 -6.67726,-20.25836 -8.14888,-40.27418 -0.22906,-3.11538 0.094,-8.20486 0.71774,-11.30998 0.6238,-3.1051 1.32158,-8.19566 1.55062,-11.3123 0.53408,-7.26754 8.53902,-22.05968 16.83438,-31.10784 3.5081,-3.82646 7.3395,-8.81676 8.51424,-11.08954 1.17474,-2.2728 3.11504,-4.84148 4.31176,-5.70816 2.49694,-1.80834 15.06732,-16.87392 15.43352,-18.49704 0.134,-0.59372 2.3505,-3.87782 4.92566,-7.29802 2.57516,-3.4202 4.78872,-6.66682 4.91904,-7.2147 0.1302,-0.5479 1.49884,-2.61114 3.0412,-4.58498 1.54236,-1.97384 2.63412,-3.97728 2.42614,-4.4521 -0.20798,-0.47482 0.54788,-1.23924 1.6797,-1.6987 2.33112,-0.9463 3.91998,-3.96204 3.0881,-5.8613 -0.52534,-1.19936 -2.34644,-1.96234 -16.90394,-7.08212 -3.28292,-1.15458 -6.41222,-3.11122 -6.954,-4.3481 -0.54176,-1.23688 -2.2156,-2.51158 -3.71964,-2.83266 -3.25326,-0.69448 -11.48504,-6.08328 -14.43086,-9.44692 -1.15162,-1.31492 -3.5262,-3.26766 -5.27684,-4.3394 -1.75066,-1.07176 -4.67246,-3.67734 -6.49292,-5.79022 -4.78218,-5.55036 -7.58932,-7.782 -15.11168,-12.01352 -3.68098,-2.07068 -6.95148,-4.34968 -7.26774,-5.06444 -0.31586,-0.71496 -1.68986,-1.20088 -3.05246,-1.08024 -1.36258,0.1206 -4.65084,-0.97904 -7.30724,-2.44374 -9.56432,-5.27368 -20.87294,-2.36778 -29.18846,7.5003 -6.11128,7.25232 -10.28642,9.13028 -15.63866,7.03424 -3.44902,-1.3507 -4.20832,-2.27814 -5.3768,-6.56736 -2.0279,-7.44396 -0.66814,-11.22052 7.25876,-20.16036 6.86438,-7.74156 7.64252,-8.28174 17.52258,-12.16408 11.73622,-4.61172 14.97716,-5.2921 23.6101,-4.95652 6.73282,0.2617 39.2053,11.56588 40.28134,14.02258 0.36974,0.8441 1.27244,1.29108 2.00602,0.99328 0.73358,-0.2978 1.1569,-0.1228 0.9407,0.3888 -0.4059,0.96064 21.34498,19.0312 23.4279,19.4638 2.29792,0.47726 9.42672,5.2724 12.14224,8.1674 5.54346,5.90988 22.93642,15.25546 26.04398,13.99394 0.61282,-0.24878 3.2248,0.29508 5.80438,1.20858 13.35468,4.72922 39.3748,7.67346 45.5742,5.15682 1.4464,-0.58716 3.8567,-0.6544 5.35626,-0.1494 1.79748,0.60534 5.6486,-0.1116 11.30298,-2.10446 9.41714,-3.31892 15.3302,-4.51176 15.90136,-3.20776 0.20326,0.46404 1.90558,0.54624 3.78296,0.1826 3.58006,-0.69334 8.71696,2.87274 11.24616,7.8072 2.08532,4.06844 -0.97864,9.35062 -7.50482,12.93812 -10.64944,5.8541 -29.88536,12.00696 -36.16204,11.56696 -3.11902,-0.21866 -6.4701,-0.0732 -7.44686,0.32336 -0.97674,0.39652 -2.86482,0.63706 -4.1957,0.53456 -18.67722,-1.43852 -31.69122,-0.47816 -32.15248,2.37272 -0.0872,0.539 1.4143,3.15022 3.33662,5.80274 2.33732,3.2251 3.27548,5.34272 2.83194,6.39232 -0.4435,1.0496 0.81126,2.49048 3.78772,4.3495 2.44798,1.52898 4.83914,3.66632 5.31364,4.74964 1.43708,3.28088 18.4691,21.46526 19.9982,21.35124 0.78432,-0.0584 1.91242,0.96012 2.5069,2.26356 0.59448,1.30344 2.2313,3.00964 3.6374,3.79156 1.4061,0.78194 2.47042,1.95406 2.36514,2.60474 -0.1052,0.65066 0.45458,1.62528 1.2441,2.16584 0.78954,0.54054 2.07892,2.10254 2.86528,3.4711 0.78636,1.36856 2.1707,2.87296 3.0763,3.3431 0.9056,0.47012 2.7638,2.44292 4.12936,4.38396 5.33458,7.5828 25.17718,25.74956 29.49934,27.0079 1.19918,0.34912 2.78792,2.02194 3.53054,3.71738 0.74262,1.69546 3.12098,4.01274 5.28522,5.14952 10.7962,5.6708 17.47232,10.7042 27.74664,20.91936 9.12466,9.0721 13.17352,11.03444 17.74668,8.60108 1.84206,-0.98014 4.19004,-2.79318 5.2177,-4.02896 1.02768,-1.23576 2.24294,-2.10022 2.70058,-1.92098 0.45766,0.1792 3.95598,-0.662 7.77404,-1.86938 3.81806,-1.20736 8.822,-2.77468 11.11988,-3.48292 2.29786,-0.70826 5.63232,-1.15806 7.40992,-0.99958 1.77758,0.1584 3.88122,-0.31244 4.67472,-1.04648 1.39418,-1.28968 18.6545,-4.0221 23.23878,-3.67882 1.23802,0.0928 8.05188,-0.25984 15.1419,-0.78344 7.09,-0.52358 13.26176,-0.79698 13.71502,-0.60758 0.45326,0.1894 2.69168,0.45798 4.97426,0.59684 2.28258,0.1388 8.00244,0.87846 12.7108,1.6436 4.70834,0.76516 9.25256,1.1103 10.09826,0.76698 0.84568,-0.3433 1.70698,-0.2375 1.914,0.23512 0.20702,0.47262 2.19914,0.79238 4.42694,0.71058 4.86112,-0.1786 5.3033,-2.00298 1.43144,-5.90618 -1.38026,-1.39148 -3.1187,-3.92056 -3.86316,-5.62022 -0.74446,-1.69964 -3.34804,-4.898 -5.7857,-7.10744 -2.43766,-2.20948 -6.57144,-6.72728 -9.18618,-10.0396 -2.61474,-3.3123 -6.0914,-7.08696 -7.72588,-8.38812 -1.6345,-1.30118 -3.24616,-2.98358 -3.58146,-3.73868 -0.33486,-0.75526 -1.06834,-1.18668 -1.62896,-0.9591 -0.82998,0.33692 -2.90614,-1.59244 -5.825,-5.4132 -3.46828,-4.53996 -5.63538,-6.53836 -9.2541,-8.53368 -2.38894,-1.31722 -4.8218,-3.48696 -5.4064,-4.82162 -0.6631,-1.51386 -4.6216,-3.76184 -10.52344,-5.97614 -5.22968,-1.9621 -12.0277,-5.69578 -15.20092,-8.34882 -5.63502,-4.71128 -17.71064,-9.96054 -24.37144,-10.59424 -6.76458,-0.64356 -13.84718,-3.81732 -16.0424,-7.18872 -1.95694,-3.00544 -1.83044,-4.0689 1.20346,-10.11594 3.41706,-6.81074 8.15076,-10.98894 12.92934,-11.41206 1.4253,-0.1262 6.30136,1.15812 10.83568,2.85408 8.36126,3.12732 10.87338,3.32278 9.9429,0.77358 -0.2833,-0.7762 -0.7376,-2.48762 -1.00952,-3.80318 -0.27192,-1.31556 -1.3882,-4.79574 -2.4806,-7.73378 -1.09242,-2.93802 -1.63018,-5.49058 -1.19504,-5.67234 0.43512,-0.1818 -1.49808,-5.37126 -4.2961,-11.53222 -5.85598,-12.89434 -8.09058,-14.87038 -21.76614,-19.24764 -9.33786,-2.98884 -17.1808,-7.94468 -17.47684,-11.04332 -0.21166,-2.21536 -5.18388,-3.22248 -8.75414,-1.77312 -0.94184,0.38234 -2.68366,-1.0667 -4.39328,-3.6548 -2.65306,-4.01634 -2.67228,-4.6251 -0.30314,-9.59926 2.49552,-5.23942 6.9262,-8.42434 9.38126,-6.74354 2.29908,1.57402 12.43936,2.64212 13.73192,1.44642 0.84398,-0.78074 0.53432,-2.53432 -0.9046,-5.12292 -4.0151,-7.22302 -5.4298,-8.487 -12.21766,-10.91588 -10.53866,-3.77102 -10.56804,-3.7834 -16.95584,-7.14176 -6.58652,-3.46286 -8.05932,-5.58702 -7.68368,-11.08194 0.1354,-1.98022 -0.20154,-6.2844 -0.74866,-9.56484 -0.54714,-3.28046 -0.54054,-7.56028 0.014,-9.51072 0.69362,-2.4367 0.37448,-4.4466 -1.02,-6.42392 -1.41648,-2.00852 -1.7319,-4.16 -1.0445,-7.12332 0.54172,-2.33512 0.2722,-5.87286 -0.59892,-7.86164 -2.29894,-5.2486 -4.74394,-17.78808 -3.88792,-19.9396 0.4038,-1.01488 -0.0706,-3.00752 -1.05416,-4.42808 -0.9836,-1.42056 -1.66912,-4.82106 -1.52342,-7.55668 0.36692,-6.88944 -0.3575,-9.08158 -4.25562,-12.87764 -1.8588,-1.81012 -3.9172,-5.0825 -4.57422,-7.27196 -4.48078,-14.9318 -8.03034,-24.09962 -11.20364,-28.93678 -1.25064,-1.9064 -2.81996,-5.8809 -3.48736,-8.83222 -0.8343,-3.68926 -2.3827,-6.75242 -4.95534,-9.80294 -4.36914,-5.18072 -8.5222,-13.18778 -8.5253,-16.43668 -10e-4,-1.25066 -1.1538,-3.99112 -2.56134,-6.08992 -1.40756,-2.0988 -3.66042,-5.99398 -5.00638,-8.65594 -3.43958,-6.80272 -9.44116,-13.76898 -12.85176,-14.91758 -1.58922,-0.5352 -2.9148,-1.7195 -2.94576,-2.63172 -0.031,-0.91226 -3.70002,-4.76386 -8.15352,-8.55916 -4.45348,-3.79526 -8.82596,-8.3547 -9.7166,-10.13204 -2.1681,-4.32666 -12.44288,-15.04668 -16.10008,-16.79774 -1.6117,-0.77168 -6.76706,-4.44018 -11.45636,-8.15222 -12.85262,-10.17414 -20.91824,-14.3799 -26.7932,-13.97114 -1.2655,0.088 -5.5121,-1.84922 -9.4369,-4.30504 -7.0148,-4.38926 -7.14164,-4.5499 -7.4689,-9.45762 -0.87308,-13.09318 7.31264,-17.58266 23.16806,-12.70656 2.99558,0.92126 5.79924,1.53318 6.23034,1.35986 1.14626,-0.46144 27.35992,13.60706 30.258,16.2386 1.3565,1.23176 3.41914,2.63722 4.58368,3.12324 1.16452,0.48602 3.62354,2.11282 5.46446,3.61508 1.84094,1.50228 4.3416,3.20274 5.557,3.7788 2.25304,1.06788 12.58902,9.26776 12.97082,10.2902 0.1156,0.30954 5.04838,4.55202 10.96174,9.42766 5.91338,4.87566 12.64812,11.18346 14.96608,14.01732 2.31796,2.83386 5.93838,7.07768 8.0454,9.4307 12.08584,13.49698 15.24508,17.477 16.93474,21.33458 1.83372,4.18646 14.06088,23.2885 15.22638,23.78756 0.59208,0.25354 21.05356,-7.18092 38.25318,-13.89888 10.99244,-4.29352 26.64672,-8.61536 28.87016,-7.9705 0.87654,0.25422 4.2902,-0.2525 7.58594,-1.12606 3.29572,-0.87354 6.67756,-1.33786 7.51518,-1.0318 0.83762,0.30606 2.51524,0.1536 3.72804,-0.33868 2.14764,-0.87182 14.2305,2.41274 16.14002,4.38744 0.5253,0.54326 3.68998,2.5807 7.03262,4.52764 3.34262,1.94694 6.32392,4.10248 6.6251,4.79008 0.30116,0.6876 2.62486,2.64386 5.16376,4.34724 5.80224,3.89282 10.3664,12.7188 10.04244,19.41954 -0.73568,15.21654 -5.89336,28.09496 -13.98728,34.92544 -2.81788,2.378 -5.67924,5.51638 -6.35858,6.97414 -1.58524,3.40168 -12.60346,12.1869 -15.39456,12.27464 -1.17336,0.0368 -3.91334,1.4818 -6.08884,3.21084 -3.2683,2.59762 -5.87908,3.51678 -15.02836,5.29096 -7.33294,1.42196 -12.60134,3.08454 -15.59814,4.92236 -2.48888,1.52634 -8.5672,4.6142 -13.5074,6.86192 -16.7031,7.59964 -17.65344,8.2021 -16.94258,10.74048 1.94432,6.94284 3.12502,16.48058 2.9031,23.45132 -0.138,4.33384 -0.1396,11.91792 -0.004,16.8535 0.136,4.9356 0.053,9.66274 -0.1844,10.50478 -0.2558,0.90762 2.26298,2.78802 6.18632,4.61838 3.63978,1.69806 6.9143,3.70538 7.27672,4.46072 0.36248,0.7553 4.27428,3.47244 8.69304,6.03806 4.41874,2.56562 9.05154,6.07162 10.29508,7.79114 1.24356,1.7195 3.46726,3.68528 4.94156,4.36836 1.71784,0.79596 3.64574,3.38818 5.36804,7.21784 1.47812,3.28668 3.02262,5.84032 3.43224,5.67474 0.75974,-0.30712 3.22868,4.31042 6.54986,12.2499 1.01974,2.43792 3.48962,6.5916 5.4885,9.23044 2.52932,3.3391 3.59354,5.6661 3.50018,7.65326 -0.20914,4.45142 1.5777,12.97424 4.54848,21.69536 2.7017,7.93114 4.67022,19.2157 4.20008,24.07686 -0.1356,1.4016 0.0688,5.28664 0.45406,8.63342 0.3853,3.34676 0.0772,6.66174 -0.68488,7.36662 -2.33358,2.1587 0.47468,6.04188 5.7279,7.92042 2.74254,0.98072 6.40672,3.10242 8.14262,4.71488 1.73588,1.61248 3.60036,2.75144 4.14328,2.53104 1.01736,-0.41298 10.19724,7.57258 11.11574,9.66956 0.28358,0.64742 2.92596,3.22164 5.87196,5.7205 2.946,2.49886 5.62114,5.1479 5.94476,5.88674 0.32362,0.73884 2.86438,3.24414 5.6461,5.56728 6.99548,5.8423 19.39386,20.8583 21.84754,26.46016 1.11892,2.55458 2.93188,5.34386 4.02876,6.1984 2.31596,1.80426 11.25368,21.05138 12.84288,27.65674 0.5956,2.47564 1.82106,4.89486 2.7232,5.37606 0.90214,0.48116 2.52338,2.03384 3.6027,3.45036 1.65732,2.17504 11.7228,5.48022 13.94368,4.57866 0.98218,-0.39872 0.0478,-11.3397 -1.00358,-11.75146 -0.48064,-0.1882 -2.27208,-3.15294 -3.981,-6.58828 -1.70892,-3.43534 -4.6001,-8.265 -6.42486,-10.7326 -4.70138,-6.35762 -14.16072,-22.5124 -17.06634,-29.1461 -1.3527,-3.08824 -4.31782,-7.6289 -6.58918,-10.09034 -2.27136,-2.46142 -4.73472,-5.41934 -5.47412,-6.57314 -0.73942,-1.15382 -3.34532,-4.49392 -5.79092,-7.42246 -2.4456,-2.92854 -6.23062,-8.05084 -8.41116,-11.38288 -2.71382,-4.14696 -5.27824,-6.60456 -8.1284,-7.78984 -2.29008,-0.95236 -4.3005,-2.04368 -4.4676,-2.42516 -0.167,-0.38146 -1.50938,-1.84634 -2.9829,-3.25524 -1.4735,-1.40892 -3.40868,-3.67412 -4.30042,-5.0338 -0.89172,-1.35966 -3.54098,-4.0759 -5.88726,-6.03606 -4.64154,-3.87774 -9.05462,-8.57434 -14.83814,-15.79132 -3.03604,-3.78854 -3.58154,-5.07348 -2.9744,-7.0062 2.1341,-6.79362 18.18212,-2.19108 29.91336,8.57908 3.85028,3.53484 9.58946,8.0214 12.75374,9.97012 l 5.7532,3.54312 10.69186,-4.27372 c 15.2087,-6.0792 32.53232,-11.4137 36.92802,-11.37146 1.33358,0.012 2.59974,-0.39096 2.8137,-0.8973 0.21396,-0.50634 1.6848,-0.80502 3.2685,-0.66388 1.58372,0.1412 7.05296,-1.23374 12.15386,-3.05544 5.17938,-1.8497 10.62406,-3.07924 12.33114,-2.78468 1.6812,0.2901 5.38816,0.31666 8.23766,0.059 8.13344,-0.73538 14.19526,0.82044 22.0695,5.66438 4.00692,2.4649 7.48662,4.94126 7.73266,5.503 0.24604,0.56172 1.0302,0.97916 1.7426,0.92764 0.71238,-0.0516 3.25826,3.50742 5.65752,7.90878 3.94982,7.2458 4.3259,8.68662 3.9774,15.23738 -0.49992,9.39588 -0.88082,10.49304 -6.39178,18.40974 -6.65918,9.5662 -13.59836,14.27268 -33.82522,22.9418 -6.9835,2.9931 -12.91054,5.9467 -13.1712,6.56358 -0.79908,1.89108 -7.8839,4.23126 -10.023,3.31066 -1.65278,-0.71128 -2.9188,-0.1054 -7.00144,3.35026 -3.21596,2.72214 -4.60198,4.68804 -3.90734,5.54206 2.30638,2.83564 14.54562,32.94342 14.29998,35.177 -0.38538,3.50392 2.87568,19.01226 5.00814,23.81668 1.12904,2.54388 4.20616,5.96346 7.87082,8.74692 3.3093,2.51358 6.22858,5.05332 6.48724,5.64386 0.25866,0.59054 2.1553,1.66282 4.21478,2.38286 3.11808,1.09018 4.56498,2.80424 8.64944,10.24666 2.69776,4.91566 6.38706,10.33765 8.19844,12.04885 4.69052,4.4312 13.36352,16.7905 13.06734,18.6213 -0.1374,0.8489 0.62332,4.448 1.69036,7.9979 1.74088,5.7916 1.54808,7.7315 -1.87688,18.8855 -4.72404,15.3845 -8.79688,25.4544 -12.5271,30.9727 -1.57288,2.3269 -2.98282,4.7961 -3.13328,5.4871 -0.1504,0.691 -0.50332,1.2687 -0.78418,1.2838 -0.28074,0.016 -2.08646,1.5732 -4.01232,3.4625 -1.92586,1.8894 -4.2898,3.7552 -5.25318,4.1463 -0.96338,0.391 -1.54024,1.1935 -1.2819,1.7833 0.25836,0.5898 -0.8149,2.5571 -2.38492,4.3719 -2.27652,2.6311 -4.55804,3.8043 -11.26482,5.7923 -4.62556,1.3711 -12.07958,4.0618 -16.56454,5.9793 -6.2893,2.6891 -9.47522,3.3939 -13.92918,3.0816 -3.17608,-0.2225 -6.36594,0.1422 -7.08856,0.8105 -0.72256,0.6685 -1.81936,0.8693 -2.4373,0.4462 -0.6483,-0.4439 -1.97338,0.4482 -3.13266,2.1091 -1.93264,2.7684 -6.09488,4.4368 -16.57106,6.6427 -1.69518,0.3569 -6.99386,1.741 -11.77482,3.0759 -5.8421,1.631 -10.1506,2.0871 -13.13826,1.3906 -2.4451,-0.5701 -5.03054,-0.799 -5.7455,-0.5087 -0.71496,0.2902 -4.5055,-0.5044 -8.42342,-1.7658 -8.11512,-2.6127 -8.91212,-2.5213 -9.25678,1.0613 -0.35478,3.6883 -5.46758,7.3678 -14.88898,10.7152 -4.486,1.5938 -8.82838,3.694 -9.64934,4.6679 -0.90598,1.0741 -2.8777,1.8177 -5.01484,1.8913 -2.64168,0.091 -4.6541,1.1172 -8.05188,4.1063 -2.97864,2.6203 -7.79678,5.2577 -14.0693,7.7011 -5.73164,2.2334 -9.09096,4.023 -8.416,4.485 2.18078,1.4931 -3.91824,4.4656 -8.54518,4.1648 -3.16528,-0.2057 -8.66208,1.1861 -17.88798,4.5295 -7.32522,2.6545 -14.04186,4.5432 -14.92592,4.197 -0.88408,-0.3463 -5.38104,0.9024 -9.9933,2.7747 -5.5361,2.2474 -9.52334,3.2039 -11.73286,2.8146 -1.84078,-0.3242 -4.58314,-0.063 -6.09416,0.581 -5.58792,2.3811 -14.82896,3.6826 -16.6188,2.3411 -1.01092,-0.7577 -2.81104,-0.9827 -4.00026,-0.5 -1.18922,0.4828 -2.63544,0.5538 -3.21382,0.1578 -0.57838,-0.396 -2.5793,-0.3865 -4.4465,0.021 -2.78446,0.6078 -16.29,1.5791 -25.145,1.8084 -1.09846,0.028 -5.54486,0.5007 -9.88094,1.0494 -5.22496,0.6612 -9.23336,0.3517 -11.88536,-0.9177 -2.96878,-1.4209 -5.21176,-1.4924 -8.69124,-0.2772 -4.32246,1.5098 -12.1507,0.9191 -13.08522,-0.9874 -0.21864,-0.4459 -1.116,-0.5191 -1.9942,-0.1626 -0.8782,0.3565 -6.45202,-0.5891 -12.38628,-2.1015 -5.93426,-1.5123 -11.1144,-2.6178 -11.5114,-2.4566 -1.19928,0.4868 -15.71792,-2.3861 -18.11488,-3.5847 -1.2292,-0.6145 -2.9208,-0.839 -3.75906,-0.4987 -3.67426,1.4916 -32.3784,-6.7019 -38.4358,-10.9713 -1.92558,-1.3572 -6.49486,-3.666 -10.15392,-5.1306 -21.75616,-8.7084 -26.14624,-10.8993 -33.49086,-16.7139 -4.50444,-3.5662 -9.50516,-8.715 -11.27028,-11.6041 -1.77076,-2.8983 -4.59224,-5.8 -6.38444,-6.5659 -2.3456,-1.0025 -3.9277,-2.9814 -5.86814,-7.3401 -1.4612,-3.2822 -3.6972,-6.5439 -4.9689,-7.2482 -2.4235,-1.3422 -4.76656,-7.6836 -3.48168,-9.4229 0.41132,-0.5568 0.3981,-1.8109 -0.0294,-2.7869 -0.42748,-0.9759 -0.33674,-2.9866 0.20164,-4.4682 0.90692,-2.4959 0.53698,-2.954 -5.03496,-6.235 -5.24926,-3.091 -18.9154,-7.2281 -21.03472,-6.3678 -0.41078,0.1668 -2.97544,-0.2504 -5.69926,-0.9271 -2.7238,-0.6767 -5.48324,-1.0149 -6.1321,-0.7515 -0.64886,0.2634 -3.4912,-0.254 -6.31628,-1.1499 -2.82508,-0.8959 -6.3551,-1.5149 -7.84448,-1.3756 -4.59632,0.4299 -24.0884,-7.6057 -26.39994,-10.8834 -1.15502,-1.638 -2.55,-2.795 -3.10018,-2.5716 -0.5502,0.2233 -1.3465,-0.3842 -1.76956,-1.3501 -1.06494,-2.4313 -7.96448,-6.3652 -9.83322,-5.6065 -0.84426,0.3427 -3.50534,-1.0562 -5.91354,-3.1088 -5.24454,-4.47 -11.61876,-14.4039 -9.7335,-15.1692 0.89088,-0.3616 0.55234,-1.228 -1.1507,-2.9448 -1.32712,-1.3379 -2.51316,-3.4815 -2.63564,-4.7635 -0.1224,-1.282 -0.75374,-2.1154 -1.40278,-1.8519 -2.28454,0.9274 -5.13466,-2.5236 -6.0216,-7.291 -0.47846,-2.5717 -1.4531,-5.0547 -2.16588,-5.5176 -1.77472,-1.1528 -16.19864,-34.30267 -18.96146,-43.57837 z m 245.21016,5.45814 c 2.58844,5.00946 5.55,9.93226 6.58126,10.93956 1.03128,1.0073 4.02906,3.87372 6.66176,6.36982 2.6327,2.49612 6.17388,7.04448 7.8693,10.10751 4.56748,8.2519 11.47672,12.3816 23.42566,14.0018 5.1644,0.7002 5.67864,0.5305 17.64726,-5.8232 6.7803,-3.5995 16.29626,-8.4219 21.14654,-10.7164 4.85028,-2.29453 9.89244,-5.15901 11.20478,-6.36551 2.3029,-2.11722 2.24932,-2.4392 -1.53746,-9.23846 -3.78918,-6.80358 -8.59942,-11.50468 -23.37182,-22.84162 -4.88854,-3.75168 -19.38516,-9.48398 -22.79332,-9.01304 -0.53146,0.0734 -4.34936,0.036 -8.4842,-0.0832 -11.03902,-0.31836 -12.63894,-2.37098 -12.30136,-15.78212 0.1374,-5.45624 -1.42464,-14.59976 -3.05552,-17.88634 -0.22232,-0.44788 -0.41106,-2.85174 -0.41952,-5.34186 -0.012,-3.42922 -1.51858,-7.6114 -6.2122,-17.24066 -7.593,-15.5776 -8.10964,-16.47376 -9.23408,-16.01728 -0.49404,0.20056 -1.21086,-0.34904 -1.59292,-1.2213 -1.37012,-3.12804 -3.84618,-1.9629 -6.71814,3.1613 -1.60678,2.86684 -3.23046,5.33788 -3.60814,5.4912 -1.24344,0.50478 -7.66532,11.51306 -7.28902,12.49472 0.20252,0.52814 -0.4412,2.36892 -1.43036,4.09056 -2.15966,3.75898 -3.90338,20.59284 -2.93464,28.3312 1.04396,8.3394 4.98736,21.06776 8.56184,27.6357 1.74794,3.21176 5.29588,9.93822 7.8843,14.9477 z m 136.45438,-29.46736 c 2.61982,4.42928 5.12156,7.56914 16.20664,20.3406 4.69786,5.41254 8.44178,10.45772 8.31982,11.2115 -0.122,0.75378 1.60226,2.81512 3.83156,4.58076 2.22934,1.76564 7.0259,6.96192 10.65904,11.5473 3.63314,4.58536 7.44492,9.16299 8.47064,10.17259 1.0257,1.0096 3.46962,3.8091 5.4309,6.2213 1.96132,2.4122 6.6327,6.9326 10.38088,10.0453 6.73026,5.5892 8.56732,7.5893 17.95274,19.5456 2.63138,3.3522 7.36516,7.8188 10.51952,9.9257 3.15438,2.107 7.8287,5.9638 10.3874,8.5707 2.55866,2.6069 7.37296,6.6859 10.69838,9.0645 3.3254,2.3786 6.36904,5.0617 6.76358,5.9625 0.39458,0.9008 2.25316,3.0887 4.13024,4.862 3.55104,3.3547 6.56978,2.7466 5.01306,-1.0098 -0.4839,-1.1678 -0.7765,-2.7622 -0.65012,-3.5432 0.1264,-0.781 -1.37772,-4.5448 -3.34232,-8.3639 -11.79156,-22.9225 -14.36016,-27.3525 -16.4124,-28.3059 -2.13072,-0.9898 -12.46186,-13.2806 -16.65448,-19.8134 -4.90224,-7.6386 -8.38566,-11.7522 -10.91166,-12.8858 -1.50158,-0.6738 -3.50002,-2.9827 -4.44096,-5.13097 -0.96462,-2.20226 -2.7649,-4.21274 -4.12756,-4.60946 -4.00142,-1.16498 -8.25728,-5.2206 -10.24826,-9.76614 -1.55204,-3.54338 -3.17992,-4.86612 -9.36154,-7.60676 -4.11552,-1.82462 -7.67984,-3.7369 -7.9207,-4.2495 -0.24082,-0.5126 -2.66576,-2.15322 -5.38868,-3.64586 -5.77552,-3.16594 -10.01844,-6.86814 -11.34674,-9.90072 -0.51782,-1.18218 -2.22632,-2.6526 -3.79668,-3.26758 -4.9001,-1.91898 -18.45626,-11.5048 -22.56174,-15.95384 -3.38844,-3.672 -11.92544,-10.54706 -12.70412,-10.23096 -0.1458,0.0592 1.80606,2.9127 4.3373,6.3412 2.53126,3.4285 5.57608,7.88002 6.76626,9.89224 z m 70.50376,19.46738 c 1.88552,1.66128 4.20246,3.58118 5.14878,4.26648 0.94634,0.6853 5.21776,4.20136 9.49206,7.81348 9.54198,8.06378 9.7395,8.2234 16.25008,13.13264 2.90086,2.18736 7.35254,6.44128 9.89266,9.45317 2.5401,3.0119 6.97816,7.4142 9.86236,9.7829 8.50612,6.9858 22.16888,32.1231 26.66444,49.0583 1.5167,5.7136 3.31368,22.3951 2.88854,26.8147 -0.52264,5.4331 1.69278,16.4865 3.44166,17.1714 1.501,0.5878 20.42376,-4.1624 34.25866,-8.5999 3.04802,-0.9777 6.16938,-1.6835 6.93644,-1.5684 0.767,0.115 10.34186,-3.138 21.27752,-7.2289 14.85556,-5.5572 21.73894,-8.6725 27.2231,-12.3203 4.0371,-2.6852 7.7981,-4.8136 8.35782,-4.7297 0.55972,0.084 3.68214,-2.2193 6.9387,-5.1181 7.62036,-6.7836 11.92174,-16.2659 12.61754,-27.8155 0.47996,-7.9679 0.1224,-9.7719 -3.49392,-17.6279 -6.90404,-14.9981 -20.8725,-30.13269 -36.76794,-39.83747 -8.37494,-5.11324 -27.72572,-13.71612 -29.36326,-13.05422 -0.66216,0.26766 -5.21746,-0.9466 -10.12292,-2.69832 -12.45554,-4.44786 -22.41598,-6.3424 -28.13562,-5.35158 -2.68148,0.46452 -7.80488,0.01 -11.38532,-1.00802 -3.58044,-1.01894 -7.36824,-1.50418 -8.41734,-1.0783 -1.0491,0.42588 -3.03738,-0.22738 -4.41842,-1.45168 -1.76002,-1.56028 -3.38986,-1.8532 -5.4496,-0.97944 -5.8102,2.46482 -15.09588,3.79254 -17.3635,2.48282 -1.6565,-0.95672 -3.06366,-0.79176 -4.95976,0.58144 -1.5266,1.10558 -4.49418,1.8795 -7.0105,1.82836 -2.39984,-0.0488 -6.0695,0.1662 -8.15476,0.4779 -2.08526,0.31164 -4.35974,0.65242 -5.0544,0.7573 -0.69464,0.1048 -2.6704,0.47678 -4.39056,0.82644 -7.6891,1.56298 -14.85718,1.88518 -18.1183,0.81442 -4.36854,-1.43436 -3.82888,0.63792 1.35576,5.20598 z M 849.40358,1065.797 c 0.2935,-4.7945 3.1419,-10.6199 5.70068,-11.6586 0.89542,-0.3635 6.72424,-1.0492 12.9529,-1.5237 6.22866,-0.4745 14.71704,-1.8824 18.86308,-3.1287 9.70752,-2.9179 16.04724,-2.6626 18.71696,0.7539 2.18616,2.7977 2.16696,2.8536 -3.97692,11.5612 -2.83372,4.0164 -4.11236,4.7732 -15.21438,9.0061 -7.67516,2.9264 -12.84876,4.3362 -14.10588,3.8438 -1.09188,-0.4276 -3.64944,-0.1018 -5.6835,0.7239 -7.1622,2.9075 -14.60814,1.6464 -16.49656,-2.794 -0.56332,-1.3246 -0.9037,-4.3774 -0.75638,-6.7839 z m -28.2918,-70.99277 c 0.27272,-0.64544 0.31518,-1.58604 0.0944,-2.09022 -0.22084,-0.50418 0.1082,-2.9428 0.73104,-5.41916 1.01856,-4.04924 1.58914,-4.60338 5.668,-5.5048 2.4945,-0.55126 6.17264,-0.72296 8.17366,-0.38152 2.00102,0.34142 7.06614,0.78906 11.25584,0.99474 4.18968,0.20568 11.1264,1.517 15.4149,2.91404 4.2885,1.39704 9.81684,2.95102 12.28516,3.4533 8.8365,1.79814 13.45908,8.96412 8.8744,13.75719 -1.72122,1.7994 -3.73164,2.1336 -10.72638,1.7828 -8.2965,-0.4161 -11.769,0.1586 -24.61534,4.0729 -9.67892,2.9492 -13.8315,2.6687 -19.36056,-1.3082 -4.80266,-3.4543 -8.83702,-9.80525 -7.79508,-12.27107 z M 711.92332,628.43935 c 2.65486,1.77186 9.68856,0.1892 17.80472,-4.00638 4.31062,-2.22832 10.17794,-4.93338 13.03846,-6.01126 14.027,-5.28556 17.27862,-6.80816 24.5818,-11.51064 4.33252,-2.78968 9.44242,-6.30904 11.35534,-7.82078 1.91292,-1.51174 4.5122,-2.8402 5.7762,-2.95212 1.26398,-0.112 2.0666,-0.73216 1.7836,-1.37828 -0.28302,-0.64612 0.20604,-1.4673 1.08678,-1.82484 2.94488,-1.19546 10.4648,-10.1104 12.88676,-15.27736 1.58638,-3.3843 1.9936,-6.38174 1.20612,-8.87788 -3.13266,-9.93012 -4.13734,-11.80656 -7.42828,-13.87344 -2.97978,-1.87148 -3.70124,-1.86148 -5.32806,0.0738 -1.03488,1.23114 -2.67954,3.93994 -3.6548,6.01956 -0.97524,2.07962 -2.28692,4.00574 -2.91484,4.28026 -0.62794,0.27448 -1.68246,2.72294 -2.34342,5.4409 -0.66098,2.71798 -2.87772,6.5565 -4.92606,8.53006 -2.04836,1.97354 -4.68476,5.3985 -5.85866,7.61102 -1.1739,2.2125 -2.63086,4.2243 -3.2377,4.47064 -0.60684,0.24634 -1.77388,1.88678 -2.59342,3.64542 -0.81958,1.75864 -2.44758,3.5862 -3.61782,4.06126 -1.17022,0.47506 -3.21602,2.11462 -4.5462,3.6435 -1.7182,1.97484 -4.14152,3.19788 -8.3689,4.2237 -3.27272,0.79418 -7.8598,2.7721 -10.19352,4.39538 -2.33372,1.62326 -8.8714,4.82712 -14.52818,7.11968 -11.6888,4.73728 -14.16612,7.22388 -9.97992,10.01776 z m 181.23184,255.70384 c 1.10414,0.31342 10.73772,-2.87702 22.63692,-7.49686 18.21118,-7.07046 21.80698,-8.83152 29.7517,-14.571 11.51542,-8.31904 15.83846,-13.28966 16.19136,-18.61686 0.3737,-5.64112 -1.42866,-9.38646 -6.0637,-12.60054 -3.06772,-2.12724 -4.57608,-2.3537 -7.56148,-1.13524 -2.95456,1.2059 -3.83556,2.38266 -4.24084,5.66438 -0.28136,2.27824 -1.87244,5.56266 -3.53574,7.29868 -4.61972,4.82174 -8.86514,10.6583 -9.87174,13.57148 -1.9536,5.65404 -11.27124,12.4196 -24.50076,17.79012 -15.24424,6.18838 -18.24288,8.55246 -12.80572,10.09584 z M 457.85048,1018.3553 c 0.1618,-0.4172 -2.21248,-7.2003 -5.27616,-15.0737 -3.06366,-7.87331 -5.34426,-15.11425 -5.068,-16.09095 0.27628,-0.97668 0.1438,-3.3803 -0.29426,-5.34136 -0.80874,-3.62012 -0.28704,-17.91704 1.10432,-30.26338 0.421,-3.73574 1.01736,-9.90962 1.32524,-13.71968 0.30788,-3.8101 2.21682,-13.62678 4.24212,-21.81486 2.02528,-8.1881 3.6407,-15.74554 3.58978,-16.79432 -0.197,-4.05782 1.73568,-9.90264 4.2263,-12.78134 3.65024,-4.21902 8.05,-4.54162 12.287,-0.90096 4.06562,3.49342 4.64808,6.35186 2.77816,13.63392 -1.72902,6.73334 -2.11346,9.30926 -2.62492,17.58838 -0.23718,3.83938 -0.81716,7.13734 -1.28882,7.32882 -0.8021,0.3256 -1.2657,4.95982 -1.6435,16.4291 -0.0872,2.64416 -0.77212,6.07518 -1.52226,7.62448 -0.75014,1.54928 -1.05136,3.5304 -0.66938,4.40248 0.38196,0.87206 0.27732,3.3839 -0.23258,5.58188 -0.8968,3.86584 0.69324,15.88414 3.23884,24.48068 0.6817,2.3021 3.94656,11.1569 7.25528,19.67731 4.9153,12.6577 7.06836,16.8798 11.76912,23.079 3.1643,4.1731 7.04108,8.0917 8.61506,8.7081 1.57398,0.6164 3.1987,1.8899 3.61048,2.83 0.4118,0.9402 2.83298,3.0094 5.38042,4.5983 2.54744,1.589 4.86618,3.4243 5.15274,4.0785 0.28656,0.6542 2.68792,1.9865 5.33634,2.9606 2.64842,0.9741 5.10014,2.4213 5.44824,3.216 0.3481,0.7948 1.01988,1.2909 1.4928,1.1025 0.93692,-0.3725 9.21442,2.6663 15.2806,5.6106 8.86812,4.3043 43.34984,9.4711 48.70334,7.2979 1.29698,-0.5265 3.43568,-0.8612 4.75264,-0.7438 1.31698,0.1174 6.11932,-0.9323 10.67188,-2.3327 12.21232,-3.7564 13.52342,-3.8289 17.11804,-0.9466 4.68766,3.7589 5.21336,8.4982 1.55748,14.0411 -2.60122,3.9438 -3.87762,4.8347 -8.96312,6.256 -3.26148,0.9115 -7.07776,1.2729 -8.48062,0.803 -1.40284,-0.4698 -5.97036,-0.051 -10.15,0.9313 -4.17964,0.982 -9.10484,1.5203 -10.94486,1.1961 -1.84002,-0.3241 -3.74832,-0.3106 -4.2407,0.03 -1.85534,1.2839 -16.14232,1.1627 -16.7137,-0.1418 -0.24386,-0.5567 -1.56136,-0.452 -2.9278,0.2326 -4.77678,2.3934 -6.5064,2.5666 -10.76388,1.0781 -2.35904,-0.8248 -4.63148,-1.3606 -5.04988,-1.1908 -0.4184,0.1698 -2.20438,-0.2 -3.96884,-0.8219 -1.76446,-0.622 -4.85082,-1.2649 -6.85856,-1.4288 -4.23946,-0.3461 -22.87006,-8.8368 -27.63998,-12.5967 -1.79108,-1.4118 -3.69946,-2.6788 -4.24084,-2.8155 -1.49078,-0.3765 -18.00144,-14.6868 -21.74566,-18.8477 -2.36806,-2.6316 -3.08764,-4.1311 -2.57016,-5.3557 0.51748,-1.2246 0.023,-2.013 -1.76634,-2.816 -1.36676,-0.6133 -4.85372,-4.1933 -7.7488,-7.9555 -2.89506,-3.7622 -5.7969,-6.9446 -6.44848,-7.072 -1.41564,-0.2768 -5.5138,-5.8686 -5.09412,-6.9508 z M 308.6704,201.53613 c 1.51664,-6.20206 3.34356,-10.6441 4.58498,-11.14806 1.13504,-0.46076 2.03374,-1.72216 1.99706,-2.80312 -0.0366,-1.08092 1.1959,-3.41122 2.739,-5.17842 1.54312,-1.7672 4.01418,-5.29588 5.49122,-7.84152 1.47704,-2.54562 3.78164,-5.5199 5.12132,-6.60948 1.3397,-1.08958 2.78222,-2.8009 3.20562,-3.80292 0.42342,-1.00202 2.71382,-3.44604 5.0898,-5.43114 2.376,-1.9851 5.36974,-5.76984 6.6528,-8.41054 1.43732,-2.95818 4.75584,-6.59266 8.64492,-9.468 3.47162,-2.56672 7.77074,-6.17838 9.55356,-8.02592 4.47066,-4.63296 11.58386,-9.47904 20.44692,-13.93012 4.11812,-2.06812 8.9478,-4.57634 10.73266,-5.57384 1.78486,-0.9975 7.09486,-3.77792 11.80002,-6.17872 4.70516,-2.4008 8.64242,-4.9064 8.74948,-5.568 0.107,-0.66162 2.2123,-2.021996 4.67834,-3.023076 3.83958,-1.55868 4.41304,-2.26114 3.99162,-4.88954 -0.34558,-2.15524 -1.79544,-3.88048 -4.86808,-5.7928 -2.40676,-1.4979 -4.7434,-2.57826 -5.1925,-2.40082 -1.2327,0.48706 -13.91538,-4.75156 -14.4481,-5.96782 -0.48168,-1.0997 -1.14866,-1.48524 -8.14166,-4.70622 -2.305,-1.06168 -4.3565,-2.30836 -4.55888,-2.7704 -0.20236,-0.46204 -2.4335,-0.93142 -4.95806,-1.0431 -2.60408,-0.1152 -6.08278,-1.47112 -8.03992,-3.13378 -3.94596,-3.35222 -12.38818,-5.91708 -17.148,-5.20978 -1.78016,0.26452 -4.56896,-0.381 -6.19734,-1.43452 -1.62838,-1.0535 -3.84924,-1.55476 -4.93524,-1.1139 -1.41208,0.57322 -3.45266,-0.85958 -7.16328,-5.02976 l -5.1887,-5.83134 0.65414,-4.96686 c 0.47714,-3.62282 1.86336,-6.03724 5.12272,-8.92234 2.4577,-2.17552 4.58232,-3.69574 4.72136,-3.3783 0.139,0.31746 0.6778,-0.1818 1.19722,-1.10944 1.30876,-2.33728 8.04412,-3.78036 11.67352,-2.50108 1.65644,0.58388 5.41058,1.09068 8.3425,1.12628 6.58042,0.0798 6.72054,0.1002 16.2231,2.35442 4.26092,1.0108 7.94374,2.28662 8.184,2.83518 0.24028,0.54854 1.20856,0.6841 2.15174,0.30122 0.94318,-0.38288 2.04026,0.0468 2.43798,0.95476 0.39772,0.908 1.4948,1.33764 2.43798,0.95476 0.94318,-0.38288 1.92164,-0.22412 2.17434,0.35282 0.2527,0.57694 2.58422,1.13906 5.18114,1.24918 2.59692,0.11 5.97478,1.01092 7.50636,2.00178 1.53156,0.99088 5.74878,2.92936 9.37158,4.30772 3.62278,1.37838 6.76108,2.90384 6.974,3.38994 0.45022,1.02788 12.8605,7.54588 14.398,7.56196 0.57074,0.006 1.24338,0.4804 1.49474,1.0543 0.25138,0.5739 4.2273,3.4259 8.8354,6.3378 4.6081,2.9119 8.72656,6.08934 9.15216,7.06098 0.42558,0.97164 2.71376,2.67402 5.08482,3.78304 2.37106,1.10904 5.20564,3.25744 6.29906,4.77424 1.43964,1.99706 2.68204,2.47606 4.50394,1.73648 3.13988,-1.27464 18.33916,-2.19456 27.933,-1.69062 3.97594,0.20884 9.0321,-0.35226 11.23594,-1.2469 2.2596,-0.91728 5.2842,-1.15586 6.93588,-0.54708 1.6109,0.59376 8.49102,1.44664 15.28914,1.89532 6.79812,0.44866 15.85886,1.58302 20.13498,2.52076 4.27612,0.93776 8.10316,1.5717 8.50452,1.40876 0.40138,-0.163 2.54616,0.0942 4.7662,0.57158 2.22006,0.47732 5.56624,0.64052 7.43598,0.36268 1.86976,-0.27784 3.57236,-0.1106 3.78356,0.37154 0.21122,0.4822 3.11496,1.23222 6.45278,1.66672 3.33782,0.4345 8.61944,1.8459 11.7369,3.13644 3.11746,1.29054 6.2426,2.11324 6.94474,1.8282 1.83074,-0.74318 33.70558,11.867356 45.37236,17.950516 6.5271,3.4033 21.3783,13.04188 21.888,14.20554 0.6825,1.55818 6.91082,6.7692 8.48234,7.0969 0.58018,0.121 3.42434,2.64636 6.32038,5.61198 2.89604,2.96562 8.19322,7.9368 11.77152,11.04708 3.57828,3.11026 6.73196,6.17096 7.00816,6.80154 0.73388,1.67548 3.61632,0.1808 4.72886,-2.45204 0.52814,-1.24992 1.3793,-2.10846 1.89148,-1.90788 0.51216,0.20056 2.28122,-2.0037 3.93126,-4.8984 1.65002,-2.89468 3.3462,-5.40358 3.76928,-5.57532 0.4231,-0.1718 1.90674,-2.81068 3.297,-5.86426 1.39028,-3.05358 3.17236,-5.8187 3.9602,-6.14472 0.78772,-0.32626 2.0084,-2.28488 2.71234,-4.35308 0.70396,-2.06818 1.8416,-3.98836 2.52812,-4.26704 0.68652,-0.2787 2.42382,-2.6681 3.86066,-5.30978 2.29322,-4.21614 10.43958,-12.32002 20.25326,-20.147656 1.72432,-1.37536 3.44658,-3.49212 3.82724,-4.7039 0.38066,-1.21178 1.59924,-2.57148 2.70794,-3.02156 1.1087,-0.45008 3.16532,-2.15638 4.57028,-3.79178 1.40496,-1.6354 4.70176,-3.84874 7.32624,-4.91854 2.62468,-1.06936 9.40826,-4.94948 15.07506,-8.62154 10.43252,-6.7602 12.00908,-7.32898 25.66652,-9.26012 2.61524,-0.36978 7.8246,-1.27284 11.57638,-2.00678 11.4338,-2.23674 20.22058,-3.02236 20.73248,-1.85368 0.26724,0.61012 0.86628,0.59438 1.3312,-0.035 0.46492,-0.62938 1.30478,-0.0954 1.86636,1.18682 0.56886,1.29876 1.4015,1.81608 1.88014,1.16814 0.4725,-0.63964 0.22858,-1.59588 -0.54206,-2.125 -1.65236,-1.13448 5.75054,-0.05 10.4453,1.5302 1.7933,0.6036 3.87046,0.84984 4.6159,0.54722 0.74546,-0.3026 1.53192,-0.1844 1.7477,0.26276 0.21576,0.44714 2.80936,1.18078 5.76356,1.63032 6.18182,0.94066 16.04152,6.74002 19.38766,11.40354 1.26016,1.75632 3.3957,3.51444 4.7456,3.90692 3.3617,0.9774 8.32564,5.84778 10.10838,9.91788 0.99392,2.26916 3.76598,4.58216 8.48838,7.08266 4.64742,2.4608 7.55762,4.87344 8.62884,7.15354 5.91118,12.582176 14.5795,22.159756 18.5845,20.533916 1.81072,-0.73506 25.23376,2.90044 25.71128,3.99066 0.25382,0.57946 4.4127,2.51316 9.242,4.2971 5.1345,1.89668 10.78648,5.09608 13.61142,7.70494 2.65698,2.4538 7.7023,6.97388 11.2118,10.04466 3.5096,3.0708 6.2963,6.1066 6.1928,6.74626 -0.1036,0.63966 1.4981,2.94726 3.5592,5.12802 2.0683,2.18848 5.3959,7.7287 7.4267,12.3651 2.9995,6.84804 3.5695,9.56948 3.0852,14.72906 -0.3268,3.48094 -0.1912,7.24882 0.3011,8.37308 0.4925,1.12426 0.3322,3.525 -0.3562,5.33502 -0.6884,1.81002 -1.1235,3.58334 -0.967,3.94074 0.8421,1.92252 -3.5151,24.55042 -5.1892,26.9486 -1.0831,1.55158 -1.6982,3.4399 -1.3669,4.19624 0.3313,0.75636 -0.1984,3.67514 -1.1771,6.4862 -0.9786,2.81106 -1.5531,5.64974 -1.2765,6.3082 0.2764,0.65856 -0.5893,2.46832 -1.9243,4.02194 -3.9132,4.55422 -11.4002,24.0162 -10.2495,26.64318 0.5649,1.2897 2.1582,3.03636 3.5408,3.88146 1.3825,0.84508 4.6752,4.1591 7.3171,7.36444 2.6419,3.20534 5.6636,6.64538 6.715,7.64452 1.0514,0.99912 4.6526,5.07894 8.0027,9.06624 7.0399,8.37894 7.316,8.6964 9.1658,10.53852 0.763,0.75974 2.8978,4.16472 4.744,7.5666 2.0967,3.86324 4.4836,6.69082 6.3581,7.53198 2.2604,1.01436 4.3257,3.91198 8.3677,11.74054 2.9517,5.7166 6.4547,11.22626 7.7846,12.2437 1.3299,1.01744 2.919,2.99736 3.5314,4.39982 1.2388,2.83738 9.2351,13.92546 15.4143,21.37436 3.5183,4.24134 5.7007,7.78318 14.0563,22.81262 0.9701,1.74508 3.6327,5.91426 5.9167,9.26488 7.6993,11.29474 16.3229,24.44734 19.1311,29.17854 1.5345,2.58542 3.8749,6.06742 5.2009,7.73778 1.326,1.67036 3.6676,6.59688 5.2037,10.94782 1.9416,5.49972 4.2172,9.60038 7.4675,13.4538 2.5711,3.04864 4.768,6.51826 4.8819,7.71028 0.1138,1.19202 5.7665,15.47504 12.5613,31.74008 8.8282,21.13214 12.7225,31.74184 13.6443,37.17236 0.7095,4.17974 2.805,11.65124 4.6567,16.60332 1.8517,4.95206 3.6662,12.60402 4.0323,17.00436 0.366,4.40032 0.9053,8.55644 1.1983,9.23584 0.2935,0.6792 0.3986,2.80932 0.2346,4.7332 -0.164,1.92386 0.1726,6.24404 0.7481,9.60036 0.5756,3.35632 0.5039,7.52896 -0.1592,9.27254 -0.6631,1.74356 -0.7484,4.21396 -0.1896,5.48974 0.5588,1.27576 0.9024,3.50112 0.7635,4.9452 -0.2026,2.10566 0.7363,3.18374 4.7409,5.44396 4.8868,2.75814 6.3674,3.24508 7.5511,2.48344 0.7835,-0.50414 15.1158,5.3874 19.6928,8.0951 6.5126,3.85274 12.3359,6.7072 13.6765,6.70392 2.8968,-0.008 15.9416,6.23938 19.1184,9.15468 2.9946,2.74814 14.0205,8.7398 22.1838,12.05502 1.5765,0.64022 3.0294,1.53534 3.2287,1.98914 0.1994,0.4538 3.0103,2.0391 6.2464,3.52286 3.2362,1.48378 5.7439,3.02922 5.5727,3.4343 -0.1712,0.4051 3.6948,2.8719 8.5909,5.4818 8.4953,4.52842 15.897,10.1504 16.2351,12.33136 0.087,0.55944 1.9068,1.47862 4.0447,2.04264 2.138,0.564 5.3168,2.28704 7.0642,3.82898 1.7474,1.54194 6.9412,5.65052 11.5418,9.13018 9.4201,7.12496 13.2865,12.1476 20.1301,26.15056 4.7585,9.73658 8.3579,24.50754 6.1867,25.3889 -0.5523,0.22422 -0.4943,1.57196 0.129,2.99498 1.2152,2.77426 2.0529,10.60632 1.2823,11.98784 -0.2571,0.46084 -0.5369,4.1905 -0.6218,8.28812 -0.085,4.09762 -0.5409,8.94946 -1.0134,10.78186 -0.4725,1.8324 -1.2064,5.59144 -1.6309,8.35338 -1.7416,11.3324 -4.3469,21.03786 -5.8064,21.63034 -0.8541,0.34674 -1.2317,1.3639 -0.8391,2.26034 0.3927,0.89656 -0.436,2.46292 -1.8416,3.48088 -1.4056,1.01796 -2.3652,2.28572 -2.1323,2.81732 0.2328,0.5316 -0.9503,2.32646 -2.6292,3.98866 -1.6789,1.66208 -3.5687,4.47884 -4.1996,6.2593 -0.631,1.78046 -2.2843,3.69878 -3.674,4.26294 -1.3897,0.56414 -3.348,2.44984 -4.3519,4.19034 -1.0038,1.7405 -3.4639,4.26494 -5.4669,5.6098 -2.0031,1.34476 -3.9981,3.01526 -4.4335,3.71196 -0.7655,1.22504 -9.7669,8.34312 -12.0014,9.49044 -1.8847,0.9677 -4.8024,4.17374 -6.1265,6.73178 -0.9815,1.89622 -3.0667,2.99794 -9.2108,4.86616 -4.5139,1.37262 -8.3123,3.10108 -8.7996,4.00464 -0.4717,0.87422 -4.3833,3.62376 -8.6924,6.11012 -4.3092,2.48638 -8.2631,5.11104 -8.7866,5.83272 -0.5235,0.72158 -4.7057,2.90842 -9.2937,4.85972 -4.5883,1.95074 -8.4818,4.12866 -8.6528,4.83872 -0.3027,1.2569 -1.3667,2.01172 -7.6376,5.41802 -1.6653,0.9047 -3.2945,2.71886 -3.6203,4.03154 -0.512,2.06288 -1.1882,2.40816 -4.9836,2.54462 -4.0114,0.1442 -4.4655,0.43712 -5.2489,3.38764 -0.4715,1.77656 -2.379,4.22118 -4.2387,5.43256 -1.8597,1.21138 -3.671,3.12488 -4.0251,4.25214 -0.3541,1.12726 -1.7728,2.50794 -3.1527,3.0681 -1.3799,0.56018 -4.8898,3.79038 -7.7999,7.17816 -3.8875,4.52592 -6.8757,6.81958 -11.2654,8.64734 -3.5815,1.4915 -6.2281,3.2952 -6.6078,4.50402 -0.3484,1.109 -1.3193,2.29478 -2.1576,2.63508 -0.8382,0.34028 -2.877,2.62626 -4.5306,5.07994 -1.6535,2.45368 -4.5148,5.07356 -6.3583,5.82194 -1.8435,0.74838 -3.8174,2.46254 -4.3865,3.80928 -0.7777,1.84058 -2.2789,2.73114 -6.0459,3.58666 -6.2566,1.42102 -10.9173,0.64392 -14.7973,-2.46728 -3.9437,-3.16234 -4.3994,-4.399 -4.2694,-11.58524 0.076,-4.2114 0.7861,-6.31726 2.3424,-6.94902 3.5007,-1.42112 2.073,-2.6061 -8.5585,-7.10356 -6.1743,-2.6119 -10.3312,-5.1444 -11.0198,-6.71344 -1.4067,-3.20558 -0.7407,-11.42492 1.2983,-16.02334 0.8651,-1.9511 3.1846,-7.47658 5.1545,-12.2786 3.9351,-9.59316 8.6879,-17.36096 14.9102,-24.36886 2.2317,-2.51348 5.5811,-6.62554 7.443,-9.13792 1.8619,-2.51234 4.1762,-4.9143 5.1429,-5.33766 0.9668,-0.4233 2.919,-2.65142 4.3384,-4.95124 l 2.5807,-4.18148 -3.3847,-1.32552 c -1.8616,-0.72904 -4.4002,-0.91328 -5.6414,-0.40942 -2.5881,1.05066 -23.7545,-0.0998 -25.6447,-1.39392 -0.6903,-0.47262 -3.0538,-1.11628 -5.2522,-1.43038 -2.1984,-0.31408 -7.1648,-2.24836 -11.0364,-4.29838 -3.8716,-2.05002 -11.8472,-4.63214 -17.7235,-5.73806 -8.9667,-1.68752 -11.6755,-2.82784 -16.8518,-7.0939 -3.7276,-3.07222 -7.061,-6.97556 -8.4259,-9.86666 -1.242,-2.63092 -2.3771,-4.73526 -2.5224,-4.6763 -0.1452,0.059 -1.8945,3.39412 -3.8873,7.41144 -1.9927,4.01732 -4.2588,7.56224 -5.0356,7.87762 -0.7769,0.31536 -4.641,4.21736 -8.587,8.6711 -3.946,4.45372 -7.7878,8.34666 -8.5374,8.65098 -0.7496,0.3043 -2.3021,2.31956 -3.45,4.47832 -1.963,3.69178 -3.8354,5.03556 -17.0945,12.26818 -2.3069,1.2584 -4.5826,3.00756 -5.0571,3.88702 -0.4744,0.87946 -3.7341,3.05438 -7.2437,4.83316 -3.5096,1.77876 -6.8841,4.16644 -7.4988,5.30598 -0.6148,1.1395 -2.1966,2.63148 -3.5151,3.31548 -17.56476,9.11176 -21.3007,11.43434 -22.85756,14.21012 -0.80544,1.43606 -1.33446,1.61402 -2.1516,0.72376 -1.26654,-1.37982 -9.7997,1.75512 -10.11712,3.71686 -0.1172,0.72418 -1.97614,1.7494 -4.13102,2.27826 -2.15492,0.52886 -8.80214,2.70496 -14.7716,4.83578 -9.0512,3.23084 -11.90162,3.74124 -17.16444,3.0735 -9.02938,-1.14564 -14.49866,-3.72626 -14.21204,-6.70574 0.1254,-1.30446 -0.22316,-3.40214 -0.77478,-4.6615 -0.61302,-1.39958 0.068,-3.729 1.75172,-5.99184 2.40848,-3.23686 4.69824,-4.48018 18.22074,-9.89378 26.8378,-10.74426 28.97454,-11.72784 36.97924,-17.02268 4.30666,-2.8487 10.96082,-7.02428 14.78704,-9.27908 3.8262,-2.25478 9.94772,-6.26314 13.60332,-8.90744 3.6556,-2.64432 11.1513,-7.66528 16.6572,-11.15768 12.618,-8.00372 27.3965,-20.45554 26.5557,-22.37504 -0.1778,-0.40602 2.618,-4.05244 6.213,-8.10314 6.4421,-7.25856 10.9055,-16.25902 13.6827,-27.59098 0.7333,-2.99216 1.9379,-6.73754 2.6767,-8.32306 2.1053,-4.5175 1.2904,-18.08398 -1.3514,-22.50086 -4.735,-7.9163 -8.1481,-11.57638 -14.6933,-15.75672 -7.4319,-4.74666 -9.4368,-7.96414 -9.1308,-14.65332 0.2494,-5.45024 2.245,-7.1886 10.9762,-9.5612 7.9305,-2.15498 11.8854,-2.06264 11.9649,0.2794 0.031,0.92026 1.2694,2.40632 2.7516,3.30234 1.5117,0.9139 3.5144,3.72328 4.5616,6.39898 1.0266,2.6234 3.336,6.79838 5.1318,9.27774 1.7958,2.47936 4.3567,7.41898 5.6909,10.97692 1.3343,3.55796 2.6922,6.3609 3.0176,6.2288 1.7698,-0.71844 8.7316,-8.9867 8.333,-9.89672 -0.2585,-0.59022 0.021,-1.27246 0.6213,-1.51612 0.6002,-0.24364 1.8351,-2.20328 2.7442,-4.35476 0.9091,-2.15148 2.5815,-4.28872 3.7164,-4.74942 1.1349,-0.46072 2.2721,-2.08906 2.5272,-3.61856 0.2551,-1.52948 1.196,-3.07814 2.091,-3.44144 3.8351,-1.55688 11.9593,-12.95092 12.1446,-17.0326 0.1326,-2.9237 1.0715,-4.65764 3.1268,-5.77464 1.6941,-0.92076 3.6962,-3.79078 4.7309,-6.78168 0.9866,-2.85194 2.4443,-5.44942 3.2393,-5.77216 1.9862,-0.80628 14.8004,-33.21698 13.9241,-35.21774 -0.388,-0.88582 0.046,-3.2115 0.9641,-5.16818 2.0088,-4.28054 3.8886,-14.4948 3.0288,-16.45772 -0.3392,-0.77442 0.1412,-2.44432 1.0676,-3.71092 0.9264,-1.26658 1.3857,-2.98472 1.0207,-3.81806 -1.8587,-4.24362 -1.6406,-14.19994 0.3569,-16.2882 1.4193,-1.4838 1.9006,-4.04104 1.4153,-7.5189 -0.4046,-2.8987 -0.8293,-6.10732 -0.9439,-7.13028 -0.1146,-1.02294 -0.2585,-1.97456 -0.3199,-2.11468 -0.061,-0.1402 -0.3271,-1.97824 -0.5903,-4.0847 -0.3247,-2.59788 -1.2389,-4.374 -2.8419,-5.52124 -1.8593,-1.33068 -2.105,-1.92124 -1.1523,-2.76968 0.666,-0.59308 0.8747,-1.8457 0.4639,-2.7836 -0.4108,-0.93788 -0.075,-3.02052 0.7471,-4.62808 1.2233,-2.39314 1.0126,-3.68374 -1.1625,-7.12136 -1.9563,-3.09186 -3.0321,-7.55162 -4.0814,-16.91978 -1.1377,-10.15696 -2.4245,-15.19684 -6.3836,-25.00238 -2.7273,-6.75462 -4.8277,-13.64324 -4.6676,-15.30808 0.1602,-1.66484 -0.2926,-3.42662 -1.006,-3.91508 -2.2337,-1.52924 -7.4483,-12.04592 -17.9734,-36.24784 l -10.1693,-23.38402 -4.5293,-2.2272 c -3.9373,-1.93614 -5.0767,-3.36068 -8.7184,-10.90068 -2.304,-4.7704 -5.0765,-9.11714 -6.161,-9.65938 -1.0845,-0.54224 -2.4036,-2.59164 -2.9313,-4.55422 -0.5278,-1.96258 -1.4391,-3.64024 -2.0252,-3.72812 -0.5861,-0.0878 -1.2262,-1.23162 -1.4225,-2.5416 -0.199,-1.32772 -2.0201,-3.37002 -4.1149,-4.61474 -3.1023,-1.84332 -3.8568,-2.96258 -4.3244,-6.4149 -0.3644,-2.6909 -1.9339,-6.16754 -4.4019,-9.75084 -2.1095,-3.06288 -4.6876,-7.13688 -5.7292,-9.05336 -1.0415,-1.9165 -2.7487,-3.81934 -3.7936,-4.22856 -1.045,-0.40922 -2.8404,-2.89112 -3.9898,-5.51536 -1.1495,-2.62424 -3.492,-5.67846 -5.2056,-6.78712 -2.3865,-1.54398 -4.1862,-4.50958 -7.6889,-12.6706 -4.3096,-10.0406 -4.806,-10.73626 -8.6129,-12.06722 -3.7893,-1.32484 -4.2169,-1.9171 -6.8992,-9.55646 -2.4735,-7.04498 -3.5802,-8.7678 -8.2003,-12.76546 -2.9374,-2.54172 -5.2622,-5.10706 -5.1662,-5.70072 0.096,-0.59368 -2.0745,-3.06298 -4.8234,-5.48736 -3.8875,-3.42846 -5.0975,-5.23722 -5.4451,-8.13992 -0.2459,-2.0526 -1.3534,-5.69738 -2.4612,-8.09952 -1.10784,-2.40218 -2.5599,-6.53836 -3.22676,-9.19156 l -1.2125,-4.82398 -4.5631,1.06652 c -5.35066,1.25062 -10.09942,-0.0388 -11.44344,-3.10734 -1.42784,-3.25984 -2.17202,-11.70676 -1.07078,-12.1538 0.52926,-0.21486 0.72288,-0.93722 0.43028,-1.60526 -0.66994,-1.5295 6.8948,-25.39758 14.20386,-44.81564 1.24132,-3.29782 2.47134,-9.7715 2.73336,-14.38594 0.26202,-4.61444 0.9351,-10.60024 1.4957,-13.30178 1.21762,-5.86758 -1.75544,-20.39804 -4.98848,-24.3806 -1.2486,-1.5381 -2.93024,-3.88598 -3.73698,-5.21752 -0.8067,-1.33154 -3.51188,-3.54866 -6.0115,-4.92692 -2.49962,-1.37826 -4.84556,-3.19268 -5.21322,-4.03204 -0.36764,-0.83938 -2.94078,-2.56382 -5.71808,-3.83212 -2.77728,-1.26828 -5.22748,-2.71206 -5.44488,-3.20836 -0.21738,-0.4963 -1.64466,-0.39518 -3.1717,0.22472 -1.52706,0.6199 -3.87354,0.69746 -5.21444,0.1724 -1.34088,-0.52512 -2.75442,-0.8263 -3.14116,-0.6693 -0.38676,0.157 -2.64778,-0.41026 -5.02452,-1.26056 -6.99094,-2.5011 -12.73894,-3.00826 -20.8601,-1.84058 -4.19638,0.60336 -10.25648,0.9679 -13.46688,0.81006 -3.2104,-0.1578 -6.43062,0.26208 -7.15606,0.93314 -0.72542,0.67108 -3.24794,0.65794 -5.60558,-0.0292 -2.35764,-0.68712 -5.70572,-1.03072 -7.4402,-0.76358 -3.12392,0.48114 -20.20268,-2.04756 -24.12696,-3.57228 -1.12088,-0.43548 -3.15238,-0.69314 -4.51444,-0.57252 -3.26468,0.28908 -7.94492,-4.6602 -7.61824,-8.05614 0.134,-1.39368 1.00516,-3.43976 1.93576,-4.54684 2.2002,-2.61748 16.0692,-8.23828 19.5596,-7.92712 4.60196,0.4103 14.35144,-3.29152 14.27918,-5.4217 -0.0346,-1.01908 0.60084,-1.75334 1.41202,-1.6317 0.81118,0.1216 1.39434,0.71892 1.2959,1.3273 -0.32396,2.00228 5.73232,3.26236 7.16506,1.49078 1.13226,-1.40002 0.51984,-2.19086 -4.16288,-5.37534 -3.01974,-2.05358 -6.43784,-3.704 -7.5958,-3.6676 -1.15794,0.0364 -2.39816,-0.6023 -2.75602,-1.41934 -0.35788,-0.81704 -3.25716,-2.6812 -6.44286,-4.14258 -3.1857,-1.4614 -6.58678,-3.67394 -7.55796,-4.9168 -0.9712,-1.242856 -3.29378,-2.964736 -5.16128,-3.826416 -11.36662,-5.24456 -13.53276,-6.42284 -14.0723,-7.65464 -0.32966,-0.75258 -1.88312,-1.1866 -3.45214,-0.96446 -2.64144,0.37396 -7.9872,-1.03882 -20.27236,-5.35758 -4.36238,-1.53358 -5.93792,-1.3551 -15.00086,1.6993 -7.38056,2.48742 -10.77346,4.1626 -12.51222,6.17776 -1.31212,1.52066 -3.8399,3.3552 -5.61726,4.07672 -1.77738,0.72152 -3.3395,1.97878 -3.47138,2.79388 -0.132,0.81512 -1.00488,1.50608 -1.93996,1.53548 -0.93508,0.0294 -3.00898,1.998196 -4.60864,4.375116 -1.59966,2.37692 -3.50592,4.5642 -4.2361,4.86062 -2.03962,0.82798 -10.39664,9.9104 -9.98454,10.85124 0.2004,0.45754 -0.92178,1.354 -2.49374,1.99214 -1.57196,0.63814 -2.6439,1.6493 -2.38208,2.24706 0.68072,1.55412 -5.90442,10.31132 -10.16106,13.51262 -1.9823,1.4908 -4.25512,3.99118 -5.05072,5.55638 -0.79562,1.56518 -2.7478,4.06998 -4.33822,5.56618 -1.5904,1.49624 -3.8342,4.54318 -4.98618,6.77102 -1.152,2.22784 -2.93426,4.3915 -3.96058,4.80812 -1.02634,0.41664 -3.00524,2.94628 -4.39758,5.62144 -1.39236,2.67516 -3.02872,5.08946 -3.63638,5.3651 -2.86216,1.29838 -12.64802,13.71964 -12.3541,15.68114 0.1974,1.31674 -1.59398,3.90996 -4.41464,6.39104 -2.61068,2.29636 -4.57772,4.56094 -4.37122,5.0324 0.2065,0.47144 -1.7814,3.19572 -4.41758,6.05394 -2.63616,2.8582 -6.53828,7.93438 -8.67134,11.2804 -2.2998,3.60752 -5.23344,6.63376 -7.20774,7.43522 -2.44522,0.99264 -3.35528,2.22592 -3.42682,4.64382 -0.0632,2.13396 -1.48174,4.3925 -4.0321,6.41952 -2.1641,1.72 -3.90818,3.90964 -3.87574,4.86586 0.0736,2.1667 -9.66602,13.33692 -12.704,14.57018 -1.23312,0.5006 -2.14812,1.89314 -2.03334,3.09454 0.1148,1.2014 -1.7665,4.2623 -4.18066,6.80202 -2.41412,2.5397 -5.01422,5.95776 -5.77796,7.5957 -0.76376,1.63792 -2.00008,3.65718 -2.74738,4.48724 -3.64768,4.0516 -5.58964,7.06288 -7.14228,11.07508 -0.93398,2.41352 -3.79058,8.88292 -6.34802,14.37644 -2.55742,5.49352 -4.34746,10.67864 -3.97784,11.5225 0.36962,0.84386 0.0252,2.13262 -0.76536,2.86394 -0.79056,0.73132 -1.13172,2.02748 -0.75816,2.88036 0.37358,0.85288 0.1714,2.49194 -0.44922,3.6424 -1.23192,2.2835 -1.81118,9.48868 -1.04036,12.94078 0.26678,1.19478 0.40746,2.20382 0.31264,2.24232 -0.99154,0.4025 1.90302,6.95666 4.60524,10.42762 3.3419,4.29264 4.53706,5.06864 13.0841,8.49556 7.39804,2.96624 24.12248,2.30108 35.09354,-1.3957 3.22672,-1.08728 7.84158,-2.17088 10.25528,-2.40802 2.41368,-0.23712 9.45864,-2.13712 15.65546,-4.22222 6.19682,-2.0851 15.93078,-4.90206 21.63102,-6.25992 5.70024,-1.35788 13.1075,-3.12242 16.46058,-3.9212 3.35306,-0.7988 7.25398,-2.075 8.66868,-2.83598 1.4147,-0.761 3.8676,-0.94736 5.45088,-0.41416 2.02708,0.68266 3.802,0.34124 5.99962,-1.15406 1.82648,-1.24274 4.46342,-2.00216 6.35772,-1.83096 3.55326,0.32114 6.17442,-0.393 18.82142,-5.12792 6.42758,-2.4064 10.03094,-3.04422 14.8452,-2.62764 4.03134,0.3488 7.59614,-0.1316 9.74304,-1.31314 1.8621,-1.02478 4.90834,-2.05114 6.76944,-2.28082 1.98654,-0.24518 3.6752,-1.10728 4.08954,-2.08782 0.5002,-1.1838 4.30268,-2.66506 13.0568,-5.08628 18.58094,-5.1391 20.20274,-5.47256 20.73266,-4.2627 0.26878,0.61362 0.8907,0.57148 1.38204,-0.0936 1.64122,-2.22176 6.9641,-2.14306 12.9244,0.1912 5.78254,2.26456 5.9099,2.40852 6.30412,7.12592 0.22128,2.64808 -0.127,5.81234 -0.77388,7.03172 -2.68072,5.05278 -15.1296,12.30104 -20.33066,11.83734 -1.32788,-0.1184 -8.8119,2.06642 -16.6312,4.85516 -7.81928,2.78872 -15.59386,4.94764 -17.27686,4.79758 -2.00498,-0.1788 -5.82388,1.1239 -11.07666,3.77834 -4.40918,2.22814 -8.4606,3.74722 -9.00318,3.37576 -0.54258,-0.37146 -2.44294,-0.1468 -4.22302,0.49916 -1.78006,0.646 -5.77094,1.6135 -8.8686,2.14998 -18.9304,3.27864 -24.90172,4.67878 -42.63616,9.99724 -3.54522,1.06318 -6.9198,1.862 -7.49908,1.77512 -0.57928,-0.0868 -5.10504,1.41826 -10.05726,3.34474 -4.9522,1.92646 -11.99326,3.92066 -15.64678,4.43156 -3.65354,0.5109 -8.6162,2.06262 -11.02814,3.44826 -2.5681,1.47534 -5.2465,2.26862 -6.46344,1.91432 -2.48568,-0.72368 -14.52478,0.8565 -18.57054,2.43744 -1.58088,0.61778 -5.6583,1.68424 -9.06088,2.36996 -3.4026,0.68572 -8.65564,1.8349 -11.67344,2.55374 -3.01778,0.71886 -6.15906,1.15576 -6.98062,0.9709 -0.82158,-0.1848 -3.18962,-0.0578 -5.26234,0.28258 -11.96604,1.96452 -24.9534,-1.4052 -34.14654,-8.8597 -2.3701,-1.92186 -4.69628,-3.3372 -5.1693,-3.14518 -1.10632,0.4491 -6.81596,-4.1979 -11.15824,-9.08156 -3.72954,-4.19452 -7.96428,-14.20862 -6.99456,-16.54036 0.33892,-0.8149 0.1102,-2.63668 -0.50806,-4.04838 -0.61834,-1.41172 -1.11408,-4.448 -1.10164,-6.7473 0.0232,-4.29194 0.22878,-4.87792 5.92188,-16.88132 1.83498,-3.86886 3.33162,-8.97728 3.3259,-11.35204 -0.006,-2.37476 0.8148,-6.10234 1.8234,-8.28352 1.0086,-2.18116 1.92262,-5.9064 2.03114,-8.2783 0.1086,-2.3719 0.8141,-4.56294 1.568,-4.86898 0.75388,-0.30604 2.19856,-2.64252 3.21038,-5.19216 1.0118,-2.54966 2.67766,-4.97592 3.7019,-5.39172 1.02424,-0.41578 2.68934,-2.98758 3.70024,-5.7151 1.01088,-2.72752 2.71436,-6.1899 3.78548,-7.69418 1.07112,-1.50426 3.1874,-4.99582 4.70282,-7.75898 1.51544,-2.76316 4.50078,-6.83452 6.6341,-9.04744 2.13334,-2.21294 3.6948,-4.44356 3.46992,-4.95696 -0.22486,-0.5134 0.54034,-1.31878 1.70044,-1.78972 1.16012,-0.47096 2.63226,-2.29768 3.2714,-4.05942 0.63918,-1.76172 2.7656,-4.72998 4.72544,-6.5961 1.95982,-1.86614 3.36994,-3.83448 3.13358,-4.37408 -0.23636,-0.5396 -0.004,-1.04572 0.51726,-1.12472 1.1879,-0.1802 6.25436,-5.73274 10.69002,-11.7158 1.86218,-2.51178 4.2825,-4.9405 5.37852,-5.39716 1.09602,-0.45666 1.77582,-1.32556 1.51068,-1.93088 -0.26516,-0.60534 0.1114,-1.34152 0.83666,-1.63596 2.0651,-0.83832 11.2168,-11.00112 14.97144,-16.62552 1.86928,-2.80016 3.74644,-5.23236 4.17144,-5.4049 0.42502,-0.1726 2.02556,-2.4944 3.55676,-5.1597 1.5312,-2.6653 3.74832,-5.62924 4.92694,-6.58652 1.17862,-0.95726 2.11642,-2.5222 2.08402,-3.47762 -0.0722,-2.13094 -11.07098,-11.77018 -14.59496,-12.79102 -1.40666,-0.40748 -2.81858,-1.33682 -3.1376,-2.06518 -0.31904,-0.72836 -2.28326,-1.9324 -4.36494,-2.67562 -2.0817,-0.74322 -5.52902,-2.73426 -7.66074,-4.42452 -2.13172,-1.69028 -7.01688,-4.44918 -10.85594,-6.1309 -3.83908,-1.68174 -7.01186,-3.3918 -7.05062,-3.80016 -0.0388,-0.40838 -3.90424,-2.08692 -8.58992,-3.73012 -4.68568,-1.64318 -10.81366,-4.38962 -13.61774,-6.10318 -8.14012,-4.97436 -34.17908,-13.99564 -37.0422,-12.83338 -0.37302,0.1514 -3.19436,-0.21998 -6.26962,-0.82538 -3.07526,-0.60538 -6.82484,-1.14998 -8.3324,-1.2102 -4.10368,-0.164 -8.55644,-0.7795 -11.19464,-1.54758 -1.2933,-0.37654 -3.6018,-0.31172 -5.13,0.144 -1.52818,0.45576 -6.37306,-0.4609 -10.76636,-2.037 -9.71702,-3.486 -36.7861,-5.40384 -42.79714,-3.03216 -1.39106,0.54888 -4.23962,0.5515 -6.33006,0.006 -2.09046,-0.54562 -4.37936,-0.77014 -5.08644,-0.49896 -0.70706,0.27122 -2.91376,0.075 -4.90374,-0.43582 -1.98996,-0.51088 -4.42396,-0.69356 -5.40886,-0.40594 -10.86396,3.1724 -17.00882,5.65906 -18.56792,7.5139 -1.07526,1.27918 -9.84126,5.6173 -21.0372,10.4109 -12.4637,5.33638 -19.56102,8.89856 -20.24102,10.15904 -0.57598,1.0676 -2.14612,2.09372 -3.4892,2.28026 -3.2827,0.4559 -19.20638,11.04678 -22.98472,15.28718 -1.66414,1.86766 -4.51562,4.00058 -6.33658,4.7398 -1.82098,0.73922 -4.44672,2.65688 -5.835,4.26148 -1.38826,1.60456 -3.00248,2.73008 -3.58712,2.50112 -1.4469,-0.56662 -10.36694,3.74776 -10.63766,5.14516 -0.54266,2.80108 -5.08786,6.42458 -11.03378,8.7963 -5.67652,2.26418 -6.8927,3.30164 -9.75816,8.32356 -2.97652,5.21656 -4.87696,7.07134 -7.91082,7.7208 -1.8691,0.40012 -11.09398,8.60748 -12.93318,11.50662 -0.97196,1.5321 -1.5534,3.31728 -1.29206,3.96706 0.90634,2.2534 -3.50976,10.89724 -6.66368,13.0432 -2.09838,1.42776 -4.96014,2.11454 -8.46558,2.03154 -4.92944,-0.1166 -5.43504,-0.44374 -7.31264,-4.73038 -1.67018,-3.81312 -1.58348,-6.37816 0.50418,-14.91534 z m 780.666,623.25778 c 2.5371,0.29726 6.4879,1.2984 8.7796,2.22472 2.2917,0.92634 7.3544,2.80104 11.2504,4.166 3.8961,1.36496 9.5457,3.63402 12.5547,5.04234 3.009,1.40834 5.8556,2.0397 6.3259,1.40304 0.4703,-0.63668 2.5442,-0.49932 4.6085,0.30524 5.595,2.18056 18.7091,5.85202 21.0337,5.88864 2.6826,0.0422 7.5944,0.8264 8.6865,1.38674 0.4776,0.24504 3.5312,0.62572 6.7857,0.84594 4.6045,0.31158 6.3072,-0.0636 7.6752,-1.69088 0.9668,-1.1502 1.5584,-2.54662 1.3147,-3.10314 -0.2438,-0.55652 0.1892,-2.68078 0.962,-4.72058 3.3829,-8.9283 4.092,-11.4084 3.5899,-12.5549 -0.2941,-0.67134 0.01,-1.44198 0.677,-1.7125 0.6664,-0.27054 2.8468,-4.07236 4.8453,-8.44852 1.9986,-4.37614 4.0042,-8.10702 4.457,-8.29084 0.4528,-0.1838 1.9608,-2.8326 3.351,-5.88618 1.3903,-3.0536 3.2251,-5.8401 4.0774,-6.19226 0.8521,-0.3524 2.2041,-2.10828 3.0041,-3.9025 1.3559,-3.04092 13.8718,-15.69856 17.3946,-17.59162 0.2997,-0.161 1.4723,-1.14544 2.6058,-2.18748 1.1334,-1.04206 6.7766,-4.7589 12.5405,-8.25968 5.7638,-3.50078 11.7893,-7.7342 13.3901,-9.40758 1.6007,-1.6734 3.7667,-3.39018 4.8134,-3.81508 1.6737,-0.67942 6.6997,-0.72012 8.7012,-0.0704 0.39,0.1266 2.3569,3.60614 4.3708,7.73236 l 3.6618,7.50218 -3.659,4.65238 c -2.0125,2.55882 -5.3542,5.62408 -7.4261,6.81168 -3.6121,2.07046 -6.3995,4.74108 -13.3351,12.77622 -1.7487,2.02588 -6.602,5.47102 -10.7852,7.6559 -4.1832,2.1849 -7.8994,4.6163 -8.2583,5.40314 -0.359,0.78684 -1.7462,1.87456 -3.0828,2.41716 -1.3366,0.54258 -3.0961,2.7152 -3.91,4.82804 -0.814,2.11284 -2.1199,4.10134 -2.9022,4.4189 -1.2703,0.51566 -2.5671,3.31528 -8.2048,17.71194 -0.8611,2.199 -1.4833,6.8266 -1.3826,10.28356 0.1184,4.06474 -0.6594,7.22488 -2.2015,8.94456 -1.3116,1.46254 -2.1656,3.1594 -1.8978,3.77078 0.2677,0.61138 -0.5089,2.98838 -1.726,5.2822 -1.217,2.29384 -1.9622,4.74624 -1.6561,5.44976 0.3068,0.70332 -0.9274,4.21502 -2.7414,7.80328 -1.814,3.58826 -4.0416,8.15204 -4.9502,10.14172 -3.6522,7.9976 -12.0264,20.7316 -14.219,21.62168 -1.2823,0.52054 -3.2056,2.468 -4.2741,4.32766 -1.0684,1.85968 -2.5851,3.64208 -3.3704,3.96086 -0.7853,0.3188 -3.4381,5.14292 -5.8951,10.7202 -3.8258,8.68444 -4.2255,10.6925 -2.7834,13.98486 2.0403,4.658 4.1128,4.71202 7.4914,0.1954 1.4013,-1.87322 3.3386,-3.72908 4.305,-4.12412 0.9674,-0.39272 3.3414,-2.52794 5.2778,-4.73994 1.9364,-2.212 4.6725,-4.4894 6.0802,-5.06088 1.4078,-0.57148 2.6936,-1.83936 2.8575,-2.81744 0.2501,-1.49338 7.3218,-9.61224 9.1991,-10.56138 3.2019,-1.61882 9.4057,-6.2939 11.1689,-8.41658 3.9138,-4.71186 11.3251,-11.67496 13.2643,-12.46222 1.0378,-0.42126 2.6791,-1.98046 3.6474,-3.46502 0.9683,-1.48446 3.666,-3.69686 5.9948,-4.9164 2.3288,-1.21956 6.231,-3.77482 8.6715,-5.67842 5.0743,-3.9577 5.2044,-4.03708 14.7932,-9.02282 3.9208,-2.03868 8.5452,-4.62324 10.2763,-5.74348 1.7311,-1.12022 8.4036,-4.5621 14.8279,-7.64862 7.2132,-3.46556 12.6991,-6.81354 14.3438,-8.75394 1.4648,-1.72814 4.1642,-4.15436 5.9987,-5.3916 1.8345,-1.23726 5.3021,-4.38748 7.7059,-7.00048 2.4038,-2.61302 5.463,-5.63928 6.7983,-6.72504 1.3352,-1.08574 3.5936,-3.53832 5.0186,-5.45014 1.4251,-1.91182 3.7675,-4.59438 5.2054,-5.96122 1.4379,-1.36684 2.4216,-2.92536 2.186,-3.46336 -0.2357,-0.53798 0.9481,-2.33142 2.6305,-3.98538 4.7774,-4.69644 7.6321,-11.12618 8.7278,-19.65778 1.0053,-7.82756 0.9958,-7.86628 -5.3513,-21.89092 l -6.3584,-14.04946 -6.8881,-3.90668 c -3.7884,-2.14868 -11.2449,-7.67572 -16.57,-12.28232 -5.3251,-4.60662 -10.9866,-8.7603 -12.5812,-9.23042 -1.5945,-0.47014 -3.4894,-2.20256 -4.211,-3.84986 -0.7589,-1.73278 -2.3515,-3.08776 -3.7786,-3.215 -2.6076,-0.23248 -14.2953,-7.06832 -20.2866,-11.86512 -1.958,-1.56762 -5.4395,-3.66768 -7.7366,-4.66678 -2.2971,-0.9991 -5.215,-3.3275 -6.4842,-5.17426 -1.2691,-1.84674 -3.7361,-3.83676 -5.4821,-4.42228 -1.746,-0.58552 -6.5423,-3.71838 -10.6585,-6.9619 -8.5328,-6.7237 -9.8653,-7.67476 -15.1985,-10.8478 -2.1222,-1.2626 -4.7847,-3.378 -5.9168,-4.7009 -1.132,-1.32288 -3.3842,-3.03362 -5.0048,-3.80166 -1.6207,-0.76802 -5.0135,-3.18292 -7.5397,-5.36642 -2.5261,-2.18352 -6.0153,-4.40722 -7.7538,-4.9416 -1.7423,-0.53552 -3.7658,-2.3315 -4.5088,-4.00188 -2.4088,-5.41524 -4.3575,-5.45828 -4.4492,-0.0982 -0.046,2.71958 -0.6536,6.44084 -1.349,8.2695 -0.6955,1.82866 -1.0453,3.82528 -0.7774,4.43694 0.2679,0.61166 -2.9116,9.6075 -7.0655,19.99072 -11.2604,28.14634 -11.685,29.06826 -16.4244,35.65874 -4.6463,6.46116 -7.3301,10.56626 -9.6378,14.74212 -1.2394,2.24276 -4.7103,6.76912 -7.713,10.0586 -3.0027,3.28946 -6.9964,8.00544 -8.8749,10.47994 -1.8785,2.47448 -4.0368,5.15568 -4.7962,5.95822 -4.235,4.47572 -10.8846,11.87936 -13.5767,15.1164 -3.7347,4.49054 -7.1988,6.1456 -9.9666,4.7617 -3.0046,-1.50226 -4.6591,0.70622 -4.5602,6.0872 0.048,2.59924 -0.7431,7.10444 -1.7573,10.01158 -1.0143,2.90712 -1.7242,5.58174 -1.5775,5.9436 0.5145,1.26926 -6.4477,17.6647 -8.1302,19.14612 -2.4893,2.19172 -1.492,3.22532 3.6989,3.83348 z M 725.99188,458.89389 c 0.0434,-3.64754 0.7541,-4.51092 6.98948,-8.49154 5.94954,-3.79814 7.68452,-4.44434 12.1449,-4.52354 2.86208,-0.0508 5.37694,-0.50222 5.5886,-1.00312 0.21166,-0.50092 2.02372,-0.62202 4.02682,-0.26914 2.00308,0.35288 4.69598,0.21372 5.98422,-0.30924 1.28822,-0.52294 3.43424,-0.85982 4.76894,-0.74862 5.60712,0.46722 13.31776,0.2881 15.59104,-0.36218 3.831,-1.09586 3.98276,-1.09916 6.43274,-0.1398 1.27446,0.4991 4.40134,0.96804 6.94862,1.04208 2.54728,0.074 5.60636,0.28536 6.79794,0.46962 1.19158,0.1842 4.32914,0.35408 6.97234,0.37742 2.64318,0.0234 7.43802,0.75046 10.6552,1.6158 3.21716,0.86534 6.24444,1.41298 6.72726,1.21698 1.25892,-0.51106 20.42394,6.7963 20.94508,7.98604 0.23946,0.54672 1.76352,1.58572 3.3868,2.30888 5.23814,2.33356 14.62268,8.06636 15.1524,9.25624 0.28262,0.63604 1.97814,2.312 3.76682,3.7248 1.78866,1.4128 4.72808,5.17792 6.53202,8.36696 1.80394,3.18902 4.03718,6.20038 4.96276,6.69192 2.9855,1.58548 5.79204,13.00498 4.72356,19.21932 -0.54918,3.19396 -0.58398,5.96956 -0.0772,6.16798 1.46174,0.57244 -4.12248,12.3606 -6.268,13.23156 -3.41082,1.38462 -13.02254,-3.75458 -15.08416,-8.06522 -1.01496,-2.1223 -2.24882,-4.56994 -2.74182,-5.43926 -0.49294,-0.86934 -1.08536,-3.76472 -1.3164,-6.43422 -0.60616,-7.0042 -3.92558,-13.86316 -7.72846,-15.96944 -1.77152,-0.98118 -5.76414,-3.66826 -8.87246,-5.97128 -3.10834,-2.30302 -7.7425,-4.79684 -10.29814,-5.5418 -2.55562,-0.74496 -7.8166,-2.47774 -11.69104,-3.8506 -4.24024,-1.5025 -8.65374,-2.12 -11.08716,-1.55122 -2.2235,0.5197 -7.3237,0.87436 -11.33378,0.78814 -4.01008,-0.0862 -9.3894,-0.1056 -11.95404,-0.043 -2.56464,0.0626 -7.04398,-0.48024 -9.95406,-1.2063 -3.67066,-0.9158 -7.9042,-0.69574 -13.82376,0.7186 -7.12612,1.70262 -10.2963,1.67974 -19.23094,-0.1388 -5.88404,-1.19762 -11.47676,-1.86146 -12.42826,-1.4752 -2.2221,0.90206 -5.2759,-5.92884 -5.2078,-11.64894 z m 258.01796,404.09942 c 0.57094,-1.05824 0.70394,-2.6868 0.29562,-3.61902 -1.05482,-2.40824 1.32716,-15.0562 3.8348,-20.36214 1.16404,-2.46302 3.31376,-5.89482 4.77716,-7.62622 1.4634,-1.73138 3.9259,-5.34734 5.47224,-8.03544 1.54634,-2.6881 4.11884,-6.02396 5.71664,-7.41304 4.4303,-3.85136 9.1202,-18.94672 7.3613,-23.69338 -3.8861,-10.48692 -6.7837,-15.35522 -9.8556,-16.55822 -7.40682,-2.90066 -10.75828,-8.33572 -10.1431,-16.44904 0.48398,-6.3833 2.3067,-10.05694 6.27758,-12.65234 2.58952,-1.69254 4.23172,-1.74366 8.81412,-0.27452 8.7157,2.79442 13.9629,8.9429 20.1646,23.6282 4.9462,11.71236 5.1177,12.56236 4.4744,22.1653 -0.3679,5.49222 -1.0519,12.42188 -1.5199,15.39924 -0.9479,6.03038 -8.1199,24.80264 -9.7248,25.45416 -0.5658,0.22966 -2.1144,3.19908 -3.4413,6.5987 -1.327,3.39962 -3.9173,7.9316 -5.7562,10.07108 -1.8389,2.13946 -3.9318,5.28252 -4.651,6.98454 -0.7192,1.70202 -3.111,4.2424 -5.315,5.64526 -2.20406,1.40286 -5.40242,3.91824 -7.1075,5.58976 -2.51946,2.46984 -3.4895,2.88624 -5.17882,2.22302 -3.3296,-1.3072 -5.64288,-4.94852 -4.49522,-7.07586 z"
             style="fill:#000000" />
        </g>
      </g>
    </g>
  </g>
</svg>
